<svg id="Layer_1" enable-background="new 0 0 511 511" height="512" viewBox="0 0 511 511" width="512" xmlns="http://www.w3.org/2000/svg"><g><g><path d="m255 .5c-98.131 0-158.574 55.347-158.741 55.441-3.787 17.481-10.374 42.85-10.374 61.465 0 140.833 118.763 254.972 259.596 254.972 60.017 0 115.159-27.944 158.719-62.639.178-1.087 5.8-23.477 5.8-54.239 0-140.833-114.167-255-255-255z" fill="#afe6ff"/><path d="m345.459 365.179c-140.833 0-255-114.167-255-255 0-18.615 2.013-36.757 5.801-54.239-.006.005-.011.01-.017.014-58.646 46.721-96.243 118.738-96.243 199.546 0 60.081 20.779 115.31 55.542 158.891l60.511 54.964c39.972 26.024 87.694 41.145 138.947 41.145 121.17 0 224.116-84.98 249.199-200.761-43.559 34.695-98.723 55.44-158.74 55.44z" fill="#91cdff"/></g><g><g><path d="m378.101 206.541-40.069-81.314 6.227-64.995 148.377 44.507-68.541 129.337z" fill="#ffc305"/></g><path d="m338.032 125.227-5.925 61.843 30.688 141.631 9.624 2.887 51.676-97.511c-12.244-47.119-43.987-86.458-86.063-108.85z" fill="#ffa50a"/><g><path d="m492.679 123.479c-1.787 0-3.604-.264-5.402-.818l-146.578-45.181c-9.67-2.98-15.093-13.235-12.112-22.905 2.981-9.668 13.231-15.093 22.905-12.111l146.578 45.181c9.67 2.98 15.093 13.235 12.112 22.905-2.426 7.872-9.674 12.929-17.503 12.929z" fill="#ffd23c"/></g><g><path d="m274.073 177.135c-30.06 0-54.515 24.455-54.515 54.514v130.988c0 9.854-8.017 17.872-17.871 17.872-.144 0-.283-.018-.426-.021v36.653c.143.001.283.011.426.011 30.059 0 54.514-24.455 54.514-54.514v-130.989c0-9.854 8.018-17.872 17.872-17.872s17.871 8.017 17.871 17.872v167.181h36.643v-167.181c0-30.059-24.455-54.514-54.514-54.514z" fill="#ffc305"/></g><g><path d="m201.687 417.151c-30.06 0-54.515-24.455-54.515-54.514v-130.988c0-9.854-8.017-17.872-17.871-17.872s-17.872 8.017-17.872 17.872v148.089c0 10.119-8.203 18.321-18.321 18.321s-18.321-8.203-18.321-18.321v-148.089c0-30.059 24.455-54.514 54.514-54.514 30.06 0 54.515 24.455 54.515 54.514v130.988c0 9.854 8.018 17.872 17.872 17.872 10.118 0 18.321 8.203 18.321 18.321s-8.204 18.321-18.322 18.321z" fill="#ffa50a"/></g><path d="m116.053 469.354h87.752v-54.964h-148.263c17.067 21.397 37.505 39.986 60.511 54.964z" fill="#ffa50a"/><g><path d="m203.804 469.354c-94.958 0-172.211-77.254-172.211-172.211 0-94.958 77.253-172.212 172.211-172.212s172.212 77.254 172.212 172.212c0 94.957-77.254 172.211-172.212 172.211zm0-289.459c-64.65 0-117.248 52.597-117.248 117.248 0 64.65 52.598 117.248 117.248 117.248 64.651 0 117.249-52.597 117.249-117.248s-52.597-117.248-117.249-117.248z" fill="#ffd23c"/></g><g><path d="m203.804 469.354c-94.958 0-172.211-77.254-172.211-172.211 0-15.178 12.304-27.482 27.481-27.482s27.481 12.304 27.481 27.482c0 64.65 52.598 117.248 117.248 117.248 15.178 0 27.481 12.304 27.481 27.482s-12.302 27.481-27.48 27.481z" fill="#ffc305"/></g><g><path d="" fill="none" stroke="#ffa50a" stroke-miterlimit="10" stroke-width="36.642"/></g></g></g></svg>