<svg height="512pt" viewBox="-22 0 512 512.00102" width="512pt" xmlns="http://www.w3.org/2000/svg"><path d="m408.820312 94.511719c-12.265624-10.46875-24.253906-21.554688-35.625-32.949219l-1.402343-1.402344 41.296875-41.84375 1.417968 1.238282c11.734376 10.25 23.464844 20.882812 34.863282 31.609374l1.4375 1.355469-1.335938 1.453125c-11.949218 13.027344-24.703125 26.621094-37.90625 40.402344l-1.308594 1.363281zm0 0" fill="#935252"/><path d="m318.894531 184.464844c-11.191406-11.105469-23.214843-21.660156-35.691406-31.332032l-1.78125-1.382812 64.054687-64.921875 1.421876 1.375c11.023437 10.652344 22.320312 21.363281 33.582031 31.832031.386719.355469.847656.472656 1.164062.507813l4.105469.441406-2.894531 2.949219c-17.699219 18.015625-37.050781 37.34375-60.902344 60.832031l-1.597656 1.574219zm0 0" fill="#935252"/><path d="m342.132812 170.535156 1.398438-1.386718c7.238281-7.171876 13.753906-13.660157 19.910156-19.839844l1.574219-1.578125 1.402344 1.734375c5.015625 6.21875 10.660156 12.019531 16.777343 17.246094l1.660157 1.410156-1.550781 1.53125c-6.316407 6.230468-12.835938 12.769531-19.941407 19.992187l-1.4375 1.464844zm0 0" fill="#935252"/><path d="m315.289062 234.648438c.230469-2.433594-.136718-4.8125-1.070312-6.886719-2.867188-6.367188-7.414062-7.703125-10.722656-7.703125l-.105469.003906c-3.261719.03125-6.945313 1.519531-10.101563 4.082031l-2.65625-2.984375c8.996094-8.796875 18.035157-17.648437 27.085938-26.535156l1.667969-1.636719 1.359375 1.898438c4.855468 6.769531 10.289062 13.261719 16.148437 19.289062l1.339844 1.378907-1.324219 1.394531c-5.820312 6.105469-11.765625 12.40625-18.171875 19.253906l-4.011719 4.292969zm0 0" fill="#935252"/><path d="m273.492188 282.359375c-6.8125-7.261719-13.527344-14.765625-19.964844-22.300781l-1.210938-1.417969 1.332032-1.308594c8.804687-8.621093 17.59375-17.222656 26.34375-25.769531 2.527343-2.472656 5.066406-4.949219 7.597656-7.429688l2.921875 2.726563c-1.363281 1.597656-2.4375 3.3125-3.191407 5.09375-.992187 2.335937-1.375 4.425781-1.171874 6.382813.179687 1.714843.839843 3.449218 1.910156 5.015624 2.476562 3.601563 6.847656 5.839844 11.410156 5.839844.214844 0 .433594-.007812.648438-.015625.550781-.023437 1.152343-.097656 1.898437-.230469l5.863281-1.058593-4.039062 4.378906c-9.042969 9.8125-18.265625 19.929687-27.402344 30.066406l-1.457031 1.613281zm0 0" fill="#935252"/><path d="m98.925781 406.148438c-.074219-.105469-.164062-.214844-.285156-.328126-11.300781-10.441406-22.296875-21.554687-32.664063-33.019531l-1.265624-1.398437 178.566406-180.976563 1.414062 1.636719c10.203125 11.792969 21.710938 22.441406 34.195313 31.648438l1.886719 1.390624-1.785157 1.753907c-.605469.597656-1.222656 1.203125-1.835937 1.800781-58.277344 56.957031-118.546875 115.859375-175.085938 177.734375l-1.722656 1.886719zm1.9375-50.835938c-6.351562.070312-13.261719 5.183594-16.089843 11.894531-.824219 1.941407-1.222657 3.6875-1.222657 5.34375 0 .355469.015625.699219.046875 1.046875.175782 1.703125.835938 3.433594 1.910156 5.003906 2.472657 3.601563 6.847657 5.839844 11.410157 5.839844.214843 0 .433593-.007812.644531-.019531 4.410156-.191406 8.796875-2.488281 11.730469-6.132813 3.597656-4.492187 4.53125-10.488281 2.375-15.277343-3.023438-6.703125-7.925781-7.703125-10.578125-7.703125zm49.605469-48.101562c-6.316406.070312-13.226562 5.183593-16.066406 11.890624-.992188 2.335938-1.378906 4.421876-1.171875 6.371094.175781 1.714844.835937 3.449219 1.910156 5.019532 2.46875 3.601562 6.839844 5.839843 11.410156 5.839843h.078125c.1875 0 .378906 0 .5625-.007812 4.421875-.207031 8.808594-2.5 11.726563-6.144531 3.609375-4.492188 4.542969-10.484376 2.378906-15.265626-2.867187-6.367187-7.414063-7.703124-10.722656-7.703124zm29.402344-28.261719c-6.328125.082031-13.238282 5.195312-16.066406 11.898437-.996094 2.34375-1.378907 4.425782-1.175782 6.375.175782 1.714844.835938 3.449219 1.910156 5.019532 2.472657 3.601562 6.847657 5.839843 11.410157 5.839843h.066406c.191406 0 .382813 0 .582031-.011719 4.414063-.203124 8.800782-2.5 11.722656-6.140624 3.59375-4.496094 4.527344-10.492188 2.375-15.269532-3.019531-6.707031-8.011718-7.710937-10.722656-7.710937zm31.308594-32.828125c-6.328126.070312-13.238282 5.1875-16.078126 11.898437-.8125 1.933594-1.210937 3.679688-1.210937 5.339844 0 .355469.019531.703125.050781 1.046875.175782 1.695312.835938 3.429688 1.910156 5.007812 2.464844 3.601563 6.832032 5.835938 11.398438 5.835938.222656 0 .4375-.007812.660156-.019531 4.40625-.195313 8.789063-2.484375 11.710938-6.128907 3.601562-4.5 4.539062-10.496093 2.386718-15.28125-2.878906-6.363281-7.382812-7.703124-10.65625-7.703124zm29.769531-27.109375c-6.320313.078125-13.230469 5.195312-16.066407 11.898437-.984374 2.328125-1.367187 4.417969-1.171874 6.382813.183593 1.71875.847656 3.453125 1.914062 5.003906 2.46875 3.605469 6.839844 5.84375 11.402344 5.84375h.074218c.195313 0 .386719 0 .585938-.007813 4.40625-.203124 8.789062-2.5 11.710938-6.144531 3.605468-4.492187 4.542968-10.484375 2.386718-15.265625-2.875-6.375-7.425781-7.710937-10.730468-7.710937zm0 0" fill="#935252"/><path d="m228.421875 326.636719 1.316406-1.496094c.199219-.226563.390625-.453125.570313-.679687 3.605468-4.5 4.542968-10.496094 2.386718-15.277344-2.871093-6.367188-7.421874-7.703125-10.730468-7.703125h-.105469c-3.96875.042969-8.398437 2.164062-11.839844 5.671875l-1.414062 1.4375-3.417969-3.410156 1.421875-1.417969c8.789063-8.761719 18.394531-18.273438 29.367187-29.078125l1.636719-1.609375 1.371094 1.839843c6.160156 8.261719 12.992187 16.042969 20.308594 23.136719l2.082031 1.039063-1.742188 1.953125c-8.546874 9.570312-17.007812 19.089843-25.144531 28.292969l-1.324219 1.496093zm0 0" fill="#935252"/><path d="m73.542969 505.613281c-.441407-.253906-1.015625-.710937-1.421875-1.054687l-29.167969-24.035156 1.273437-1.546876c2.824219-3.421874 5.667969-6.828124 8.519532-10.230468l1.558594-1.859375 1.527343 1.882812c.179688.222657.359375.457031.542969.691407 1.273438 1.652343 2.589844 3.359374 4.671875 4.433593 1.25.640625 2.660156.96875 4.183594.96875 1.789062 0 3.648437-.464843 5.378906-1.335937 2.703125-1.359375 4.855469-3.488282 6.753906-5.367188 13.371094-13.230468 28.515625-28.214844 42.757813-43.167968 4.484375-4.707032 8.46875-9.011719 11.847656-13.976563 1.609375-2.371094 3.453125-5.550781 3.402344-9.085937-.082032-5.773438-5.070313-10.007813-8.816406-12.695313l-1.855469-1.328125 1.949219-2.078125c2.695312-2.863281 5.386718-5.726563 8.089843-8.582031l1.519531-1.605469 4.136719 4.78125c.210938.238281.503907.433594.855469.5625l1.570312.582031-.300781 1.652344c-.179687 1-.222656 1.972656-.125 2.980469.183594 1.6875.847657 3.429687 1.921875 5.003906 2.460938 3.597656 6.828125 5.835937 11.398438 5.835937.203125 0 .398437-.007812.601562-.015624 4.464844-.199219 8.84375-2.492188 11.765625-6.132813 3.605469-4.5 4.542969-10.496094 2.386719-15.28125-2.636719-5.839844-6.667969-7.386719-9.582031-7.660156l-1.390625-.128907-.355469-1.351562c-.046875-.175781-.101563-.359375-.164063-.484375-1.15625-2.242187-2.808593-4.324219-4.785156-6.015625l-1.609375-1.382812 1.472657-1.527344c16.101562-16.675782 33.292968-34.109375 52.558593-53.296875l1.414063-1.40625 3.390625 3.386719-1.402344 1.414062c-1.753906 1.773438-3.179687 3.847656-4.132813 6.011719l-.085937.210937c-.984375 2.335938-1.367187 4.417969-1.164063 6.371094.175782 1.710938.839844 3.4375 1.914063 5.007812 2.460937 3.609376 6.828125 5.851563 11.398437 5.851563.222657 0 .433594-.007813.65625-.019531 4.078126-.183594 8.25-2.226563 11.152344-5.464844l1.328125-1.484375 4.734375 4.195313-1.324218 1.496093c-9.800782 11.070313-19.527344 22.109375-29.195313 33.089844-41.277344 46.839844-83.960937 95.273437-127.8125 141.484375-.792969.84375-1.402344 1.382812-1.914063 1.6875l-1.007812.605469zm116.253906-169.773437c-6.324219.070312-13.234375 5.183594-16.074219 11.890625-.984375 2.339843-1.367187 4.429687-1.164062 6.382812.175781 1.714844.835937 3.449219 1.910156 5.019531 2.464844 3.601563 6.835938 5.839844 11.402344 5.839844.203125 0 .398437-.007812.601562-.019531 4.457032-.195313 8.835938-2.488281 11.769532-6.136719 3.601562-4.496094 4.539062-10.492187 2.386718-15.273437-3.027344-6.703125-8-7.703125-10.695312-7.703125zm0 0" fill="#935252"/><path d="m38.652344 476.449219c-7.304688-5.117188-30.152344-30.855469-32.164063-36.238281l-.046875-.125-.03125-.128907c-1.59375-6.960937 2.652344-12.015625 8.824219-18.394531 4.5625-4.742188 9.292969-9.511719 13.871094-14.121094l1.613281-1.628906c2.621094-2.628906 5.238281-5.265625 7.847656-7.914062l8.824219-8.933594 1.417969 1.558594c10.746094 11.8125 22.191406 23.15625 34.019531 33.71875l2.179687 1.039062-1.773437 1.988281c-15.066406 16.945313-28.769531 32.910157-41.890625 48.816407l-1.175781 1.421874zm0 0" fill="#935252"/><g fill="#f9d889"><path d="m452.070312 48.117188c-11.332031-10.648438-22.949218-21.179688-34.527343-31.300782l-1.597657-1.394531 5.480469-5.566406c1.445313-1.464844 3.242188-3.292969 5.261719-3.695313.3125-.0625.636719-.09375.976562-.09375 1.785157 0 3.699219.875 5.335938 1.734375 10.585938 5.464844 19.554688 13.691407 25.921875 23.78125 1.433594 2.273438 2.84375 4.933594 2.453125 7.417969-.320312 2.132812-1.914062 4.023438-3.808594 6.097656-.511718.574219-1.039062 1.148438-1.566406 1.726563l-2.445312 2.6875zm0 0"/><path d="m445.199219 312.601562c-6.070313 0-12.296875-1.871093-17.785157-3.523437-2.738281-.828125-5.09375-1.648437-6.320312-3.375-1.242188-1.738281-1.210938-4.558594.074219-7.019531 1.199219-2.300782 3.246093-4.230469 5.070312-5.855469l.324219-.289063.410156-.128906c.769532-.238281 1.390625-.589844 1.6875-.753906 3.734375-2.101562 7.179688-4.703125 10.242188-7.738281l1.121094-1.113281 1.34375.839843c6.902343 4.304688 12.066406 10.914063 14.535156 18.613281.527344 1.660157 1.054687 3.777344.460937 5.53125-1.164062 3.421876-5.964843 4.351563-7.40625 4.550782-1.1875.171875-2.453125.261718-3.757812.261718zm0 0"/><path d="m424.515625 286.894531c-3.960937-8.019531-7.921875-16.589843-9.019531-25.386719-2.09375-16.722656 5.394531-32.085937 13.328125-48.355468l.042969-.089844c2.40625-4.941406 4.894531-10.050781 7.03125-15.109375 5.792968-13.714844 7.484374-24.738281 5.328124-34.6875-1.207031-5.574219-3.824218-11.191406-7.5625-16.246094-5.699218-7.679687-12.972656-12.421875-20.480468-13.34375-1.261719-.15625-2.476563-.234375-3.617188-.234375-6.066406 0-10.328125 2.234375-12.660156 6.636719l-1.375 2.597656-1.910156-2.234375c-.863282-1.007812-1.78125-2.023437-2.722656-3.011718l-1.394532-1.472657 1.488282-1.375c5.761718-5.324219 14.125-8.378906 22.949218-8.378906 7.804688 0 15.46875 2.359375 21.585938 6.640625 12.921875 9.0625 20.371094 26.257812 18.976562 43.804688-1.128906 14.253906-7.195312 27.074218-13.613281 40.644531-3.316406 7-6.742187 14.226562-9.386719 21.640625-3.140625 8.78125-4.421875 16-4.039062 22.714844.414062 7.042968 2.867187 13.5625 6.910156 18.351562l1.265625 1.496094-1.46875 1.296875c-2.128906 1.875-4.4375 3.542969-6.859375 4.945312l-1.847656 1.078125zm0 0"/><path d="m386.390625 164.109375c-6.320313-5.339844-12.164063-11.355469-17.371094-17.878906l-1.113281-1.394531 1.257812-1.265626c3.136719-3.160156 6.253907-6.304687 9.382813-9.476562l1.527344-1.542969 1.414062 1.648438c.046875.050781.085938.105469.136719.152343 5.789062 4.769532 10.785156 10.363282 14.851562 16.628907 1.003907 1.539062 1.347657 2.367187 1.324219 3.15625-.027343 1.027343-.703125 2.042969-2.589843 3.871093-1.480469 1.429688-2.945313 2.871094-4.414063 4.316407l-3.019531 2.957031zm0 0"/><path d="m383.867188 118.296875c-.046876-.347656-.191407-.84375-.617188-1.242187-11.070312-10.277344-22.328125-20.949219-33.460938-31.714844l-1.453124-1.40625 20.605468-20.878906 1.421875 1.421874c11.34375 11.351563 23.269531 22.390626 35.457031 32.816407l1.613282 1.378906-1.476563 1.527344c-6.679687 6.925781-12.789062 13.21875-18.679687 19.230469l-2.867188 2.929687zm0 0"/><path d="m339.605469 211.132812c-5.859375-6.039062-11.292969-12.574218-16.148438-19.421874l-.09375-.105469-1.132812-1.410157 1.507812-1.488281c4.6875-4.617187 9.382813-9.242187 14.066407-13.878906l1.441406-1.425781 19.820312 20.589844-1.355468 1.386718c-4.46875 4.566406-9.308594 9.566406-15.226563 15.746094l-1.433594 1.496094zm0 0"/><path d="m226.785156 356.417969c-.796875 0-1.339844-.273438-1.652344-.507813-.523437-.378906-.9375-.972656-1.550781-1.90625l-.117187-.179687c-.394532-.589844-.796875-1.203125-1.300782-1.777344l-1.15625-1.320313 1.164063-1.316406c27.132813-30.765625 58.753906-66.46875 90.660156-100.898437l1.335938-1.4375 1.464843 1.308593c1.164063 1.039063 2.421876 1.886719 3.824219 2.808594 2.222657 1.464844 4.316407 2.847656 5.109375 4.902344 1.046875 2.757812-.339844 6.21875-4.359375 10.902344-26.53125 30.980468-57.179687 58.867187-86.820312 85.835937-2.542969 2.3125-4.886719 3.585938-6.601563 3.585938zm0 0"/><path d="m281.796875 220.949219c-.15625-.210938-.292969-.355469-.433594-.457031-12.421875-9.148438-23.867187-19.773438-34.019531-31.578126l-1.203125-1.398437 32.832031-33.28125 1.402344 1.773437c.09375.113282.195312.214844.304688.300782 12.347656 9.578125 24.222656 20.003906 35.308593 31.003906l.128907.097656 1.699218 1.414063-1.574218 1.550781c-10.511719 10.332031-21.003907 20.601562-31.445313 30.804688l-1.632813 1.59375zm0 0"/><path d="m299.5 245.128906c-3.207031 0-6.378906-1.597656-8.085938-4.070312-.714843-1.058594-1.121093-2.117188-1.226562-3.164063-.121094-1.222656.167969-2.691406.867188-4.351562 1.027343-2.40625 2.855468-4.710938 5.15625-6.5 2.390624-1.859375 4.957031-2.898438 7.226562-2.921875h.171875c2.953125 0 5.339844 1.839844 6.902344 5.320312 1.507812 3.34375.769531 7.785156-1.839844 11.050782-2.195313 2.738281-5.460937 4.46875-8.738281 4.625-.144532.007812-.289063.011718-.433594.011718zm0 0"/><path d="m262.128906 295.136719c-7.410156-7.179688-14.324218-15.101563-20.550781-23.550781l-1.027344-1.394532 1.234375-1.214844c1.777344-1.75 3.554688-3.492187 5.332032-5.234374l2.289062-2.246094 1.390625 1.625c6.585937 7.683594 13.378906 15.261718 20.191406 22.519531l1.257813 1.34375-1.230469 1.367187c-2.007813 2.226563-4.007813 4.457032-6.007813 6.683594l-1.386718 1.550782zm0 0"/><path d="m237.054688 244.078125c-3.21875 0-6.386719-1.601563-8.078126-4.082031-.675781-.96875-1.105468-2.054688-1.222656-3.113282-.128906-1.269531.167969-2.746093.878906-4.398437 2.113282-5.015625 7.730469-9.308594 12.300782-9.398437.082031-.007813.160156-.015626.238281-.015626 2.945313 0 5.335937 1.839844 6.910156 5.316407 1.511719 3.347656.765625 7.792969-1.851562 11.0625-2.210938 2.75-5.476563 4.476562-8.742188 4.621093-.140625.003907-.289062.007813-.433593.007813zm0 0"/><path d="m217.96875 326.550781c-3.210938 0-6.382812-1.601562-8.078125-4.078125-.683594-.992187-1.109375-2.070312-1.226563-3.117187-.128906-1.269531.15625-2.699219.875-4.390625 2.132813-5.046875 7.800782-9.363282 12.375-9.421875l.175782-.003907c2.941406 0 5.328125 1.839844 6.902344 5.316407 1.511718 3.355469.765624 7.796875-1.855469 11.058593-2.191407 2.738282-5.457031 4.46875-8.730469 4.625-.148438.007813-.292969.011719-.4375.011719zm0 0"/><path d="m207.28125 271.1875c-3.210938 0-6.382812-1.597656-8.082031-4.078125-.683594-.992187-1.105469-2.070313-1.226563-3.113281-.125-1.269532.160156-2.699219.875-4.394532 2.136719-5.046874 7.804688-9.359374 12.375-9.421874 3.136719 0 5.492188 1.792968 7.082032 5.320312 1.511718 3.351562.765624 7.792969-1.855469 11.054688-2.203125 2.75-5.46875 4.476562-8.738281 4.625-.144532.007812-.285157.007812-.429688.007812zm0 0"/><path d="m138.636719 455.390625c-.347657 0-.679688-.054687-.984375-.160156-1.109375-.371094-2-1.445313-3.027344-2.6875l-.132812-.15625c-.210938-.25-.433594-.519531-.671876-.78125l-1.21875-1.34375 1.214844-1.34375c23.695313-26.207031 47.605469-53.28125 68.152344-76.601563l1.34375-1.523437 1.503906 1.367187c1.652344 1.503906 3.183594 3.078125 4.554688 4.679688.261718.296875.460937.546875.59375.730468l.882812 1.207032-.910156 1.191406-.253906.316406c-20.082032 25.152344-41.933594 49.195313-64.980469 71.511719-2.53125 2.453125-4.457031 3.59375-6.066406 3.59375zm0 0"/><path d="m185.898438 360.910156c-3.210938 0-6.382813-1.601562-8.078126-4.078125-.691406-1.007812-1.117187-2.097656-1.21875-3.144531-.136718-1.222656.148438-2.65625.867188-4.363281 1.007812-2.394531 2.835938-4.703125 5.152344-6.503907 2.40625-1.859374 4.972656-2.894531 7.226562-2.921874h.164063c2.957031 0 5.347656 1.839843 6.914062 5.320312 1.507813 3.351562.765625 7.792969-1.855469 11.054688-2.191406 2.738281-5.457031 4.46875-8.734374 4.625-.148438.007812-.292969.011718-.4375.011718zm0 0"/><path d="m175.972656 304.019531c-3.210937 0-6.382812-1.601562-8.082031-4.078125-.695313-1.015625-1.117187-2.105468-1.21875-3.144531-.128906-1.25.15625-2.683594.867187-4.363281 1.027344-2.421875 2.859376-4.730469 5.15625-6.503906 2.394532-1.851563 4.957032-2.882813 7.222657-2.90625h.171875c2.953125 0 5.339844 1.835937 6.902344 5.304687 1.515624 3.359375.769531 7.804687-1.851563 11.066406-2.195313 2.742188-5.460937 4.46875-8.730469 4.617188-.148437.003906-.292968.007812-.4375.007812zm0 0"/><path d="m106.71875 320.371094c-2.398438-2.078125-4.347656-4.699219-5.644531-7.582032l-.785157-1.75 1.476563-.734374 58.429687-54.449219c3.972657-3.710938 8.472657-7.917969 13.351563-11.28125l1.5625-1.078125 1.15625 1.503906c.710937.921875 1.449219 1.804688 2.199219 2.617188l1.289062 1.402343-71.617187 72.582031zm0 0"/><path d="m155.765625 392.976562c-3.226563 0-6.410156-1.597656-8.105469-4.074218-.683594-.992188-1.109375-2.074219-1.226562-3.117188-.128906-1.277344.167968-2.75.878906-4.402344 2.121094-5.035156 7.789062-9.351562 12.371094-9.410156h.175781c2.941406 0 5.328125 1.835938 6.902344 5.316406 1.507812 3.34375.761719 7.785157-1.851563 11.050782-2.195312 2.742187-5.460937 4.472656-8.734375 4.628906-.144531.007812-.277343.007812-.410156.007812zm0 0"/><path d="m146.574219 332.269531c-3.21875 0-6.386719-1.601562-8.078125-4.082031-.675782-.96875-1.105469-2.050781-1.222656-3.113281-.128907-1.265625.152343-2.695313.859374-4.386719 1.027344-2.410156 2.855469-4.71875 5.160157-6.503906 2.398437-1.855469 4.960937-2.886719 7.226562-2.914063h.167969c2.953125 0 5.339844 1.835938 6.90625 5.308594 1.515625 3.339844.777344 7.789063-1.84375 11.0625-2.210938 2.75-5.476562 4.472656-8.742188 4.617187-.144531.007813-.289062.011719-.433593.011719zm0 0"/><path d="m139.066406 372.6875 1.257813-1.316406c2.695312-2.828125 5.40625-5.65625 8.113281-8.484375l1.265625-1.324219 1.4375 1.136719c1.324219 1.0625 2.46875 2.324219 3.40625 3.757812l1.265625 1.9375-2.101562.972657c-3.191407 1.476562-6.101563 3.941406-8.199219 6.949218l-1.46875 2.105469zm0 0"/><path d="m65.222656 470.800781c-.867187 0-1.644531-.175781-2.316406-.523437-1.210938-.625-2.183594-1.816406-3.324219-3.3125l-.152343-.195313c-.433594-.554687-.878907-1.128906-1.359376-1.667969l-1.160156-1.296874 1.125-1.328126c19.347656-22.816406 39.851563-45.8125 62.675782-70.300781l1.265624-1.359375 1.488282 1.199219.078125.066406c4.015625 2.84375 7.71875 6.011719 7.769531 9.910157.039062 2.351562-1.277344 4.625-2.703125 6.730468-3.253906 4.777344-7.261719 9.097656-11.429687 13.46875-14.042969 14.746094-28.597657 29.148438-42.671876 43.070313-1.671874 1.664062-3.570312 3.550781-5.714843 4.632812-1.175781.59375-2.410157.90625-3.570313.90625zm0 0"/><path d="m96.945312 380.378906c-3.203124 0-6.375-1.597656-8.082031-4.070312-.703125-1.042969-1.121093-2.125-1.222656-3.148438-.125-1.242187.167969-2.710937.867187-4.367187 2.136719-5.046875 7.804688-9.359375 12.375-9.421875h.175782c2.953125 0 5.339844 1.839844 6.90625 5.320312 1.507812 3.351563.765625 7.792969-1.855469 11.054688-2.1875 2.746094-5.457031 4.476562-8.730469 4.625-.140625.003906-.285156.007812-.433594.007812zm0 0"/><path d="m85.597656 421.265625c-11.855468-10.585937-23.320312-21.957031-34.078125-33.800781l-1.273437-1.398438 11.605468-11.765625 1.421876 1.566407c10.394531 11.476562 21.375 22.566406 32.632812 32.964843.097656.085938.226562.179688.375.261719l2.207031 1.226562-1.699219 1.867188c-2.679687 2.941406-5.335937 5.902344-7.996093 8.863281l-1.632813 1.816407zm0 0"/></g><path d="m462.066406 49.171875c1.972656-2.175781 4.679688-5.15625 5.304688-9.25.695312-4.496094-1.414063-8.550781-3.328125-11.582031-6.945313-10.992188-16.71875-19.960938-28.265625-25.933594-2.929688-1.515625-6.4375-2.960938-10.273438-2.195312-3.832031.761718-6.464844 3.433593-8.390625 5.386718-.003906 0-.003906 0-.003906 0l-234.4375 237.617188c-1.277344-1.425782-2.441406-2.953125-3.445313-4.585938-1.144531-1.871094-3.574218-2.480468-5.46875-1.375-6.695312 3.914063-12.289062 9.125-17.699218 14.164063l-58.621094 54.625c-.78125.730469-2.097656 1.953125-2.601562 3.925781-.535157 2.078125.085937 3.894531.6875 5.242188 1.59375 3.582031 3.941406 6.78125 6.84375 9.394531l-68.113282 69.035156c-2.601562 2.636719-5.21875 5.269531-7.832031 7.898437-5.121094 5.15625-10.417969 10.484376-15.558594 15.808594-5.738281 5.945313-12.878906 13.34375-10.332031 24.09375 1.136719 4.796875 13.261719 18.574219 16.953125 22.6875 8.765625 9.761719 15.277344 15.890625 19.425781 18.296875.210938.78125.648438 1.507813 1.320313 2.0625l30.046875 24.765625c1.179687.96875 3.148437 2.589844 5.867187 2.734375.136719.007813.269531.011719.402344.011719 3.613281 0 6.109375-2.628906 7.335937-3.917969 16.136719-17.007812 32.128907-34.335937 47.96875-51.789062l.082032.09375c1.34375 1.628906 3.023437 3.652343 5.777344 4.585937 1.011718.34375 1.996093.496094 2.949218.496094 4.765625 0 8.632813-3.746094 10.257813-5.316406 23.246093-22.507813 45.269531-46.742188 65.464843-72.035156.710938-.886719 1.898438-2.378907 2.160157-4.46875.410156-3.296876-1.683594-5.730469-2.578125-6.769532-1.601563-1.863281-3.335938-3.628906-5.160156-5.28125.339843-.386718.6875-.78125 1.03125-1.167968 2.792968-3.167969 5.59375-6.347657 8.394531-9.527344.082031.128906.164062.253906.238281.363281.722656 1.101563 1.617188 2.46875 3.089844 3.542969 1.140625.835937 2.882812 1.699218 5.207031 1.699218 2.761719 0 6.34375-1.226562 10.707031-5.191406 29.792969-27.117187 60.601563-55.15625 87.34375-86.382812 2.253906-2.628906 8.238282-9.617188 5.410156-17.003906-1.484374-3.875-4.644531-5.957032-7.429687-7.792969-1.105469-.730469-2.160156-1.425781-3.003906-2.164063 25.945312-27.859375 52.4375-55.261718 79.636719-81.609375 1.511718-1.464843 4.332031-4.191406 4.433593-8.082031.074219-2.949219-1.46875-5.324219-2.296875-6.601562-.25-.382813-.515625-.757813-.773437-1.136719.265625-.386719.476562-.816407.597656-1.296875 1.011719-4.023438 3.28125-6.511719 11.050781-5.554688 7.886719.96875 13.625 7.273438 16.347656 10.945313 3.230469 4.355469 5.480469 9.164062 6.507813 13.910156 1.878906 8.675781.296875 18.539063-4.984375 31.046875-2.089844 4.945312-4.554688 10.007812-6.941406 14.90625-7.96875 16.351562-16.207032 33.261719-13.890625 51.761719 1.234375 9.859375 5.390625 18.835937 9.90625 27.929687.074219.148438.167969.332032.273437.527344-1.453125 1.488281-2.824218 3.164062-3.871094 5.167969-2.347656 4.507812-2.203124 9.746093.367188 13.34375 2.546875 3.5625 6.730469 4.820312 9.503906 5.652343 5.972656 1.796876 12.597656 3.789063 19.492188 3.789063 1.542968 0 3.105468-.101563 4.671875-.324219 6.164062-.882812 10.757812-4.101562 12.28125-8.613281 1.171875-3.472656.316406-6.976563-.429688-9.3125-3.164062-9.882813-10.226562-18.355469-19.375-23.25-.851562-.453125-1.789062-.554687-2.667969-.382813-3.554687-3.792968-5.753906-9.3125-6.113281-15.492187-.34375-5.859375.832031-12.316406 3.6875-20.320313 2.539063-7.105468 5.902344-14.210937 9.15625-21.082031 6.375-13.472656 12.96875-27.402343 14.1875-42.765625 1.554688-19.660156-6.902343-38.988281-21.550781-49.246094-16.230469-11.367187-39.148438-10.164062-52.53125 2.636719-.285156-.242187-.566406-.492187-.855469-.734375 26.003907-26.429687 51.671875-53.28125 76.453125-80.613281zm-141.515625 134.167969c-.070312-.085938-.128906-.175782-.207031-.253906-11.277344-11.1875-23.355469-21.796876-35.910156-31.535157l61.078125-61.90625c11.066406 10.699219 22.367187 21.410157 33.609375 31.851563.660156.613281 1.472656.949218 2.308594 1.039062-20.164063 20.515625-40.539063 40.777344-60.878907 60.804688zm20.484375 26.398437c-5.804687-5.988281-11.179687-12.449219-15.996094-19.25-.035156-.050781-.082031-.085937-.121093-.136719 4.765625-4.6875 9.527343-9.386718 14.296875-14.101562l17.0625 17.734375c-5.105469 5.21875-10.183594 10.480469-15.242188 15.753906zm-77.515625 83.964844c-7.394531-7.175781-14.21875-15.007813-20.332031-23.304687 2.03125-1.996094 4.058594-3.988282 6.089844-5.980469 6.5625 7.660156 13.355468 15.246093 20.253906 22.589843-2.007812 2.230469-4.011719 4.460938-6.011719 6.695313zm-110.652343 73.84375c-3.472657 1.613281-6.6875 4.308594-9 7.621094l-2.09375-2.414063c2.703124-2.835937 5.410156-5.667968 8.121093-8.492187 1.15625.925781 2.164063 2.046875 2.972657 3.285156zm6.839843 6.425781c.839844-.007812 3.347657-.039062 5.230469 4.136719 1.191406 2.640625.535156 6.335937-1.589844 8.984375-1.84375 2.304688-4.5625 3.75-7.265625 3.875-2.644531.117188-5.382812-1.164062-6.773437-3.199219-.507813-.738281-.8125-1.503906-.886719-2.214843-.09375-.894532.152344-2.035157.722656-3.386719 1.828125-4.320313 6.765625-8.148438 10.5625-8.195313zm-59.113281 31.066406c-.164062-.234374-.351562-.460937-.574219-.664062-11.292969-10.429688-22.234375-21.5-32.554687-32.914062l175.710937-178.089844c10.285157 11.882812 21.875 22.625 34.527344 31.949218-.648437.632813-1.296875 1.269532-1.945313 1.902344-58.625 57.296875-118.699218 116.011719-175.164062 177.816406zm21.71875-11.378906c3.609375 2.554688 6.957031 5.332032 7 8.359375.027344 1.820313-1.179688 3.84375-2.359375 5.585938-3.128906 4.597656-6.933594 8.699219-11.226563 13.207031-13.925781 14.625-28.515624 29.066406-42.621093 43.03125-1.65625 1.640625-3.371094 3.335938-5.21875 4.265625-1.480469.75-3.078125.902344-4.070313.394531-.871094-.449218-1.730468-1.566406-2.644531-2.75-.496094-.644531-1.023437-1.320312-1.613281-1.984375 20.242187-23.875 41.199218-47.257812 62.617187-70.230469.046875.039063.085938.085938.136719.121094zm-35.265625 26.222656c-11.886719-10.609374-23.328125-21.960937-34.046875-33.761718l8.792969-8.910156c10.390625 11.46875 21.398437 22.597656 32.757812 33.085937.234375.21875.492188.390625.757813.539063-2.746094 3.027343-5.480469 6.066406-8.210938 9.109374-.015625-.019531-.03125-.042968-.050781-.0625zm192.421875-261.980468c12.304688 9.542968 24.144531 19.941406 35.195312 30.90625.054688.054687.121094.09375.175782.144531-10.507813 10.328125-21 20.597656-31.441406 30.800781-.234376-.324218-.507813-.625-.847657-.875-12.367187-9.109375-23.675781-19.625-33.691406-31.269531l29.953125-30.359375c.191406.234375.40625.460938.65625.652344zm-4.523438 123.089844c-6.777343-7.230469-13.453124-14.695313-19.898437-22.230469 8.804687-8.625 17.59375-17.214844 26.347656-25.773438 2.527344-2.46875 5.066407-4.949219 7.601563-7.429687-1.445313 1.691406-2.65625 3.582031-3.519532 5.617187-1.125 2.65625-1.554687 5.066407-1.316406 7.359375.214844 2.046875.992188 4.101563 2.253906 5.941406 2.867188 4.183594 7.816407 6.710938 13.054688 6.710938.242188 0 .488281-.003906.734375-.015625.722656-.03125 1.445313-.128906 2.164063-.257813-9.203126 9.988282-18.347657 20.019532-27.421876 30.078126zm32.160157-41.75c-1.84375 2.304687-4.5625 3.753906-7.265625 3.875-2.636719.125-5.382813-1.164063-6.777344-3.199219-.503906-.734375-.808594-1.5-.882812-2.214844-.09375-.894531.152343-2.03125.722656-3.386719 1.828125-4.320312 6.761718-8.148437 10.5625-8.195312h.144531c.945313 0 3.300781.183594 5.082031 4.136718 1.195313 2.640626.539063 6.335938-1.585937 8.984376zm8.9375-12.296876c-3.523438-7.820312-9.46875-8.917968-12.671875-8.886718-3.882813.046875-7.941406 1.769531-11.335938 4.53125 8.996094-8.796875 18.03125-17.644532 27.082032-26.535156 4.945312 6.886718 10.429687 13.433593 16.34375 19.515624-6.089844 6.394532-12.152344 12.816407-18.179688 19.269532.261719-2.71875-.132812-5.441406-1.238281-7.894532zm52.90625-161.050781c11.378906 11.386719 23.332031 22.453125 35.570312 32.917969-6.199219 6.429688-12.425781 12.835938-18.675781 19.21875-.113281-.902344-.515625-1.773438-1.234375-2.441406-11.1875-10.386719-22.425781-21.042969-33.429687-31.683594zm44.234375-44.835937c11.761718 10.269531 23.457031 20.871094 34.816406 31.558594-12.445312 13.570312-25.089844 27.027343-37.882812 40.375-12.21875-10.433594-24.152344-21.472657-35.503907-32.839844zm13.894531-12.941406c1.398437-.273438 3.308594.578124 4.992187 1.449218 10.277344 5.316406 18.976563 13.296875 25.15625 23.082032 1.164063 1.839843 2.460938 4.191406 2.175782 6.046874-.242188 1.570313-1.640625 3.222657-3.308594 5.0625-.878906.96875-1.773438 1.933594-2.65625 2.90625-11.285156-10.617187-22.898438-21.144531-34.582031-31.355468l3.996093-4.046875c1.257813-1.277344 2.824219-2.863281 4.226563-3.144531zm-324.175781 303.851562c.015625-.007812.023437-.019531.035156-.027344l58.617188-54.625c4.167968-3.882812 8.453124-7.875 13.125-11.089844.726562.949219 1.5 1.867188 2.308593 2.746094l-68.953125 69.886719c-2.183594-1.894531-3.945312-4.242187-5.132812-6.890625zm-94.542969 127.539062c-1.375-5.976562 2.402344-10.441406 8.304687-16.5625 5.101563-5.28125 10.375-10.589843 15.476563-15.722656 2.621094-2.636718 5.242187-5.273437 7.851563-7.921875l7.335937-7.433593c10.824219 11.890624 22.359375 23.332031 34.347656 34.03125.019531.019531.039063.027343.058594.042968-14.28125 16.066406-28.292969 32.34375-41.9375 48.867188-7.507813-5.261719-29.695313-30.652344-31.4375-35.300782zm199.496094-61.371093c.226562.265625.382812.464843.492187.613281-.101562.128906-.203125.257812-.265625.339844-19.980469 25.019531-41.773437 49-64.773437 71.269531-3.230469 3.128906-4.570313 3.128906-5 2.980469-.597656-.203125-1.398438-1.164063-2.167969-2.097656-.261719-.316407-.542969-.648438-.835937-.980469 23.085937-25.539063 45.828124-51.269531 68.167968-76.617188 1.546875 1.40625 3.019532 2.910157 4.382813 4.492188zm-4.070313-17.039063c-41.320312 46.890625-84.046875 95.378906-127.753906 141.429688-.796875.839844-1.238281 1.203125-1.488281 1.351562-.335938-.191406-.882813-.640625-1.136719-.851562l-27.640625-22.777344c2.820313-3.417969 5.660156-6.824219 8.511719-10.222656.167968.214844.339844.429687.511718.652344 1.34375 1.746093 2.871094 3.722656 5.339844 4.992187 1.539063.792969 3.285156 1.183594 5.097656 1.183594 2.078126 0 4.242188-.515625 6.285157-1.546875 2.988281-1.503906 5.257812-3.753906 7.265625-5.738282 14.148437-14.003906 28.78125-28.488281 42.789062-43.199218 4.539063-4.769532 8.582032-9.128906 12.050782-14.234375 1.78125-2.617188 3.816406-6.148438 3.757812-10.238281-.105469-7.011719-6.125-11.757813-9.65625-14.289063 2.816406-3 5.640625-6 8.472656-8.988281l2.691406 3.105468c.464844.535157 1.042969.902344 1.667969 1.128907-.21875 1.214843-.265625 2.386719-.148437 3.53125.210937 2.042969.992187 4.097656 2.253906 5.9375 2.863281 4.183593 7.816406 6.710937 13.054688 6.710937.242187 0 .488281-.003906.734374-.015625 4.984376-.222656 9.917969-2.796875 13.195313-6.882812 4.070313-5.078125 5.109375-11.882813 2.644531-17.34375-3.042968-6.753907-7.875-8.527344-11.21875-8.832031-.070312-.304688-.171875-.605469-.320312-.894532-1.285156-2.507812-3.101563-4.769531-5.253906-6.617187 26.988281-27.949219 54.453124-55.34375 81.886718-82.339844 6.25 8.378906 13.203125 16.296875 20.710938 23.5625.015625.015625.035156.023437.050781.039063-18.335937 20.519531-36.4375 41.054687-54.355469 61.386718zm114.574219-108.234375c2.027344 1.339844 3.78125 2.492188 4.335937 3.945313.75 1.957031-.558593 4.859375-4.003906 8.878906-26.414062 30.847656-57.035156 58.710938-86.644531 85.660156-3.003906 2.730469-5.160156 3.371094-5.730469 2.949219-.285156-.207031-.71875-.871094-1.101562-1.453125-.429688-.65625-.917969-1.398438-1.542969-2.109375 29.601563-33.558594 59.722656-67.511719 90.625-100.867187 1.316406 1.1875 2.753906 2.136718 4.0625 2.996093zm43.578125-64.625-16.996094-17.664062c6.644532-6.589844 13.285156-13.207031 19.914063-19.851563 5.125 6.34375 10.839843 12.214844 17.039062 17.511719-6.695312 6.609375-13.34375 13.285156-19.957031 20.003906zm78.375 97.101563c6.433594 4.015625 11.367188 10.300781 13.683594 17.535156.402344 1.253906.886718 3.058594.472656 4.277344-.625 1.847656-3.507812 2.886718-5.789062 3.210937-6.800782.976563-14.183594-1.246093-20.699219-3.203125-2.277344-.683594-4.390625-1.402344-5.261719-2.621094-.800781-1.117187-.707031-3.144531.222656-4.929687 1.007813-1.9375 2.792969-3.648437 4.628906-5.289063.925782-.285156 1.65625-.691406 2.070313-.921874 3.914063-2.195313 7.492187-4.90625 10.671875-8.058594zm-5.9375-150.855469c12.355469 8.652344 19.472656 25.136719 18.140625 42.003906-1.101563 13.890625-7.09375 26.550781-13.441406 39.953125-3.335938 7.050782-6.785157 14.339844-9.457031 21.820313-3.234376 9.054687-4.550782 16.523437-4.144532 23.5.4375 7.542969 3.074219 14.4375 7.375 19.527343-2.015625 1.78125-4.203125 3.359376-6.535156 4.722657-4.078125-8.242188-7.777344-16.351563-8.832031-24.757813-2.019531-16.117187 5.339843-31.226562 13.136719-47.226562 2.433593-4.992188 4.949218-10.15625 7.121093-15.300782 5.960938-14.109374 7.6875-25.515624 5.4375-35.890624-1.269531-5.855469-4.003906-11.734376-7.910156-17.003907-6.027344-8.132812-13.785156-13.15625-21.839844-14.144531-10.578125-1.300781-15.761719 2.695312-18.28125 7.457031-.910156-1.054687-1.835937-2.089843-2.796875-3.09375 10.582032-9.78125 29.203125-10.546875 42.027344-1.566406zm-54.015625 1.414063c5.617187 4.628906 10.476563 10.074218 14.445313 16.175781.667968 1.027343 1.003906 1.703125.996093 1.996093-.007812.394532-.675781 1.238282-1.980469 2.5-2.054687 1.992188-4.09375 4.003907-6.140624 6.007813-6.253907-5.285156-11.992188-11.191406-17.097657-17.601563 3.132813-3.148437 6.261719-6.308593 9.386719-9.472656.125.136719.246094.273438.390625.394532zm0 0"/><path d="m150.449219 305.207031c-7.070313.082031-14.765625 5.722657-17.890625 13.113281-1.125 2.660157-1.554688 5.070313-1.316406 7.363282.210937 2.046875.988281 4.097656 2.25 5.9375 2.867187 4.1875 7.820312 6.714844 13.058593 6.714844.242188 0 .488281-.007813.730469-.015626 4.988281-.226562 9.921875-2.800781 13.195312-6.886718 4.070313-5.074219 5.109376-11.882813 2.648438-17.34375-3.527344-7.816406-9.488281-8.910156-12.675781-8.882813zm3.738281 21.183594c-1.847656 2.300781-4.5625 3.75-7.269531 3.875-2.644531.121094-5.378907-1.167969-6.773438-3.199219-.503906-.738281-.808593-1.5-.882812-2.214844-.09375-.894531.148437-2.035156.71875-3.386718h.003906c1.824219-4.320313 6.761719-8.152344 10.558594-8.195313h.144531c.949219 0 3.300781.183594 5.085938 4.136719 1.191406 2.640625.539062 6.332031-1.585938 8.984375zm0 0"/><path d="m192.523438 285.839844c-3.527344-7.820313-9.5-8.917969-12.675782-8.886719-7.074218.082031-14.765625 5.722656-17.890625 13.117187-1.125 2.65625-1.558593 5.066407-1.316406 7.359376.210937 2.046874.988281 4.101562 2.25 5.941406 2.867187 4.183594 7.820313 6.710937 13.054687 6.710937.242188 0 .488282-.003906.734376-.015625 4.988281-.226562 9.917968-2.800781 13.195312-6.886718 4.070312-5.074219 5.109375-11.882813 2.648438-17.339844zm-8.9375 12.300781c-1.847657 2.300781-4.566407 3.75-7.269532 3.871094-2.675781.121093-5.382812-1.164063-6.773437-3.199219-.503907-.734375-.8125-1.5-.882813-2.214844-.097656-.894531.148438-2.03125.71875-3.386718h.003906c1.824219-4.320313 6.757813-8.148438 10.558594-8.191407.042969 0 .09375-.003906.144532-.003906.949218 0 3.300781.183594 5.085937 4.136719 1.191406 2.640625.539063 6.335937-1.585937 8.988281zm0 0"/><path d="m194.195312 270.539062c2.867188 4.183594 7.820313 6.710938 13.058594 6.710938.242188 0 .488282-.007812.730469-.015625 4.988281-.226563 9.921875-2.800781 13.199219-6.886719 4.066406-5.074218 5.105468-11.882812 2.644531-17.34375-3.523437-7.816406-9.449219-8.933594-12.675781-8.882812-7.070313.082031-14.765625 5.722656-17.890625 13.113281v.003906c-1.125 2.65625-1.554688 5.066407-1.316407 7.359375.210938 2.042969.988282 4.097656 2.25 5.941406zm6.492188-10.160156c1.828125-4.320312 6.761719-8.152344 10.5625-8.195312.832031-.007813 3.347656-.039063 5.226562 4.136718 1.191407 2.640626.539063 6.335938-1.585937 8.984376-1.847656 2.304687-4.5625 3.753906-7.269531 3.875-2.636719.121093-5.382813-1.164063-6.773438-3.195313-.503906-.738281-.808594-1.503906-.882812-2.214844-.09375-.898437.148437-2.039062.722656-3.390625zm0 0"/><path d="m223.976562 243.433594c2.867188 4.179687 7.820313 6.710937 13.054688 6.710937.246094 0 .488281-.007812.734375-.015625 4.988281-.226562 9.917969-2.800781 13.195313-6.886718 4.070312-5.074219 5.109374-11.882813 2.648437-17.34375-3.527344-7.820313-9.484375-8.914063-12.675781-8.882813-7.074219.082031-14.765625 5.71875-17.890625 13.113281-1.125 2.65625-1.554688 5.066406-1.316407 7.363282.210938 2.042968.988282 4.097656 2.25 5.941406zm6.492188-10.164063c1.828125-4.320312 6.761719-8.148437 10.558594-8.191406.042968-.003906.09375-.003906.148437-.003906.945313 0 3.300781.183593 5.082031 4.136719 1.191407 2.640624.539063 6.335937-1.585937 8.988281-1.847656 2.300781-4.5625 3.75-7.269531 3.871093-2.640625.125-5.378906-1.164062-6.773438-3.195312-.503906-.738281-.808594-1.503906-.882812-2.214844-.09375-.894531.148437-2.039062.722656-3.390625zm0 0"/><path d="m100.816406 353.3125c-7.070312.082031-14.765625 5.722656-17.890625 13.117188-1.125 2.65625-1.554687 5.0625-1.316406 7.359374.210937 2.042969.992187 4.097657 2.253906 5.9375 2.863281 4.183594 7.816407 6.714844 13.054688 6.714844.242187 0 .488281-.003906.734375-.015625 4.984375-.226562 9.917968-2.800781 13.195312-6.886719 4.066406-5.074218 5.105469-11.882812 2.644532-17.34375-3.523438-7.816406-9.449219-8.957031-12.675782-8.882812zm3.738282 21.183594c-1.84375 2.304687-4.5625 3.75-7.265626 3.875-2.652343.125-5.382812-1.167969-6.777343-3.199219-.503907-.738281-.808594-1.5-.882813-2.210937-.09375-.898438.148438-2.035157.722656-3.390626 1.824219-4.320312 6.761719-8.148437 10.558594-8.195312.84375-.007812 3.347656-.039062 5.230469 4.136719 1.191406 2.636719.539063 6.332031-1.585937 8.984375zm0 0"/><path d="m189.773438 333.839844c-7.074219.085937-14.765626 5.722656-17.890626 13.117187-1.125 2.65625-1.554687 5.0625-1.316406 7.359375.210938 2.046875.988282 4.101563 2.25 5.941406 2.867188 4.183594 7.820313 6.710938 13.054688 6.710938.242187 0 .488281-.003906.734375-.015625 4.988281-.226563 9.917969-2.800781 13.195312-6.882813 4.070313-5.078124 5.109375-11.882812 2.648438-17.34375-3.523438-7.820312-9.507813-8.925781-12.675781-8.886718zm3.738281 21.183594c-1.847657 2.304687-4.566407 3.753906-7.269531 3.875-2.660157.125-5.382813-1.164063-6.773438-3.199219-.503906-.734375-.808594-1.5-.882812-2.210938-.09375-.898437.148437-2.039062.71875-3.390625h.003906c1.824218-4.320312 6.757812-8.152344 10.558594-8.195312h.144531c.949219 0 3.300781.183594 5.085937 4.136718 1.191406 2.640626.539063 6.335938-1.585937 8.984376zm0 0"/><path d="m221.84375 299.480469c-7.074219.082031-14.765625 5.71875-17.890625 13.113281v.003906c-1.125 2.65625-1.554687 5.0625-1.316406 7.359375.210937 2.042969.988281 4.097657 2.25 5.9375 2.867187 4.183594 7.816406 6.714844 13.054687 6.714844.246094 0 .488282-.003906.734375-.015625 4.988281-.226562 9.917969-2.800781 13.195313-6.886719 4.070312-5.074219 5.109375-11.882812 2.648437-17.34375-3.527343-7.816406-9.496093-8.910156-12.675781-8.882812zm3.738281 21.183593c-1.847656 2.304688-4.566406 3.75-7.269531 3.871094-2.636719.128906-5.378906-1.164062-6.773438-3.195312-.503906-.738282-.8125-1.503906-.886718-2.210938-.089844-.898437.152344-2.039062.726562-3.390625 1.824219-4.320312 6.757813-8.148437 10.558594-8.195312.828125-.015625 3.347656-.039063 5.230469 4.136719 1.191406 2.636718.539062 6.335937-1.585938 8.984374zm0 0"/></svg>