<svg height="512pt" viewBox="0 0 512 512" width="512pt" xmlns="http://www.w3.org/2000/svg"><path d="m512 256c0 56.382812-18.222656 108.511719-49.109375 150.808594-4.972656 6.8125-10.28125 13.375-15.894531 19.65625-17.40625 19.488281-37.75 36.300781-60.34375 49.726562-2.027344 1.210938-4.074219 2.382813-6.140625 3.519532-.648438.378906-1.296875.742187-1.957031 1.097656 0 0-.007813 0-.007813.011718-4.722656 2.570313-9.53125 5.015626-14.429687 7.28125-.679688.335938-1.371094.648438-2.058594.964844-2.238282 1.023438-4.484375 2.003906-6.75 2.957032h-.011719c-.460937.195312-.917969.382812-1.378906.574218-5.421875 2.253906-10.949219 4.3125-16.550781 6.195313-3.898438 1.304687-7.828126 2.507812-11.796876 3.636719-1.296874.355468-2.59375.710937-3.886718 1.054687-11.640625 3.09375-23.617188 5.382813-35.863282 6.792969-2.683593.3125-5.378906.574218-8.097656.804687h-.007812c-6.324219.53125-12.707032.835938-19.15625.898438-.855469.019531-1.703125.019531-2.558594.019531-.5 0-1.011719 0-1.515625-.011719-2.945313-.007812-5.882813-.082031-8.808594-.195312h-.011719c-17.125-.679688-33.8125-3.03125-49.902343-6.917969-21.847657-5.265625-42.609375-13.34375-61.878907-23.824219-10.238281-5.570312-20.0625-11.820312-29.402343-18.695312-8.140625-5.984375-15.914063-12.433594-23.28125-19.328125-4.878907-4.566406-9.582031-9.3125-14.085938-14.242188-1.808593-1.984375-3.59375-3.992187-5.339843-6.03125-2.964844-3.445312-5.839844-6.980468-8.621094-10.582031-12.914063-16.742187-23.800782-35.121094-32.296875-54.796875-13.414063-31.085938-20.855469-65.367188-20.855469-101.375 0-36.6875 7.710938-71.554688 21.617188-103.101562 0-.007813 0-.007813 0-.007813 34.984374-79.414063 109.140624-137.675781 197.988281-150.320313.011719-.011718.011719-.011718.011719 0 11.890624-1.691406 24.03125-2.570312 36.382812-2.570312 141.386719 0 256 114.613281 256 256zm0 0" fill="#304b82"/><path d="m66.746094 258.785156c0 20.691406-15.117188 37.847656-34.90625 41.03125-3.597656-13.074218-5.519532-26.832031-5.519532-41.03125 0-14.199218 1.921876-27.957031 5.519532-41.03125 19.789062 3.183594 34.90625 20.339844 34.90625 41.03125zm0 0" fill="#eb927a"/><path d="m315.992188 258.785156c0 20.691406 15.113281 37.847656 34.90625 41.03125 3.597656-13.074218 5.515624-26.832031 5.515624-41.03125 0-14.199218-1.917968-27.957031-5.515624-41.03125-19.792969 3.183594-34.90625 20.339844-34.90625 41.03125zm0 0" fill="#eb927a"/><path d="m325.570312 291.496094v210.933594c-1.296874.355468-2.59375.710937-3.886718 1.054687-11.640625 3.09375-23.617188 5.382813-35.863282 6.792969-2.683593.3125-5.378906.574218-8.097656.804687h-.007812c-6.324219.53125-12.707032.835938-19.15625.898438-.855469.019531-1.703125.019531-2.558594.019531-.5 0-1.011719 0-1.515625-.011719-2.945313-.007812-5.882813-.082031-8.808594-.195312h-.011719c-17.125-.679688-33.8125-3.03125-49.902343-6.917969-21.847657-5.265625-42.609375-13.34375-61.878907-23.824219-10.238281-5.570312-20.0625-11.820312-29.402343-18.695312-8.140625-5.984375-15.914063-12.433594-23.28125-19.328125-4.878907-4.566406-9.582031-9.3125-14.085938-14.242188-4.878906-5.339844-9.539062-10.878906-13.960937-16.613281v-120.675781zm0 0" fill="#151a1c"/><path d="m353.917969 492.597656c-5.421875 2.253906-10.949219 4.3125-16.550781 6.195313-5.164063 1.722656-10.386719 3.289062-15.683594 4.691406-11.640625 3.09375-23.617188 5.382813-35.863282 6.792969-2.683593.3125-5.378906.574218-8.097656.804687h-.007812c-6.324219.53125-12.707032.835938-19.15625.898438-.855469.019531-1.703125.019531-2.558594.019531-3.457031 0-6.894531-.074219-10.324219-.207031-17.125-.679688-33.824219-3.03125-49.914062-6.917969-21.847657-5.265625-42.609375-13.34375-61.878907-23.824219-10.238281-5.570312-20.0625-11.820312-29.402343-18.695312-8.140625-5.984375-15.914063-12.433594-23.28125-19.328125-4.878907-4.566406-9.582031-9.3125-14.085938-14.242188 6.457031-5.777344 13.511719-10.886718 21.066407-15.226562.363281-.207032.730468-.40625 1.105468-.613282 9.898438-5.582031 20.597656-9.824218 31.921875-12.539062 6.199219-1.507812 12.59375-2.539062 19.121094-3.0625 3.386719-.273438 6.804687-.40625 10.261719-.40625h81.566406c9.644531 0 19.027344 1.074219 28.035156 3.132812.457032.113282.90625.210938 1.355469.324219 11.734375 2.8125 22.820313 7.292969 33.03125 13.164063 29.320313 16.875 51.167969 45.296875 59.339844 79.039062zm0 0" fill="#c92888"/><path d="m353.917969 492.597656c-5.421875 2.253906-10.949219 4.3125-16.550781 6.195313-5.164063 1.722656-10.386719 3.289062-15.683594 4.691406-11.640625 3.09375-23.617188 5.382813-35.863282 6.792969-2.683593.3125-5.378906.574218-8.097656.804687h-.007812c-6.324219.53125-12.707032.835938-19.15625.898438-.855469.019531-1.703125.019531-2.558594.019531-3.457031 0-6.894531-.074219-10.324219-.207031-17.125-.679688-33.824219-3.03125-49.914062-6.917969-21.847657-5.265625-42.609375-13.34375-61.878907-23.824219-10.238281-5.570312-20.0625-11.820312-29.402343-18.695312 21.242187-38.972657 62.578125-65.417969 110.089843-65.417969h17.585938c59.015625 0 108.46875 40.769531 121.761719 95.660156zm0 0" fill="#f76cae"/><path d="m236.0625 348.679688v54.851562c0 20.082031-13.238281 37.054688-31.476562 42.691406-4.175782 1.296875-8.625 1.996094-13.226563 1.996094-24.679687 0-44.6875-20.003906-44.6875-44.6875v-54.851562zm0 0" fill="#eb927a"/><path d="m236.0625 400.058594v3.472656c0 20.082031-13.238281 37.054688-31.476562 42.691406-16.457032-5.058594-28.828126-19.363281-31.113282-36.871094 2.988282.183594 5.988282.273438 9.003906.273438 8.457032 0 16.746094-.667969 24.820313-1.996094 9.949219-1.597656 19.566406-4.160156 28.765625-7.570312zm0 0" fill="#f4c0a3"/><path d="m346.015625 177.808594v58.890625c0 76.957031-56.21875 140.796875-129.832031 152.644531-.246094.042969-.507813.082031-.757813.125-7.828125 1.25-15.863281 1.871094-24.0625 1.871094-85.402343 0-154.640625-69.238282-154.640625-154.640625v-58.890625c0-17.980469 3.070313-35.261719 8.738282-51.320313 21.148437-60.183593 78.496093-103.332031 145.902343-103.332031h.011719c8.1875 0 16.238281.636719 24.078125 1.875 73.96875 11.554688 130.5625 75.5625 130.5625 152.777344zm0 0" fill="#eb927a"/><path d="m346.015625 177.808594v58.890625c0 76.953125-56.21875 140.796875-129.832031 152.644531-.246094.039062-.507813.082031-.757813.125-73.96875-11.558594-130.546875-75.566406-130.546875-152.769531v-58.890625c0-77.214844 56.59375-141.222656 130.574219-152.78125 73.96875 11.558594 130.5625 75.566406 130.5625 152.78125zm0 0" fill="#f4c0a3"/><g fill="#eb927a"><path d="m296.625 277.300781c0 10.640625-8.625 19.265625-19.261719 19.265625-10.640625 0-19.261719-8.625-19.261719-19.265625 0-10.636719 8.621094-19.261719 19.261719-19.261719 10.636719 0 19.261719 8.625 19.261719 19.261719zm0 0"/><path d="m124.636719 277.300781c0 10.640625-8.625 19.265625-19.261719 19.265625s-19.261719-8.625-19.261719-19.265625c0-10.636719 8.625-19.261719 19.261719-19.261719s19.261719 8.625 19.261719 19.261719zm0 0"/><path d="m208.917969 278.742188h-35.085938c-4.179687 0-7.566406-3.386719-7.566406-7.566407 0-4.179687 3.386719-7.566406 7.566406-7.566406h35.085938c4.179687 0 7.566406 3.386719 7.566406 7.566406 0 4.179688-3.386719 7.566407-7.566406 7.566407zm0 0"/><path d="m166.742188 232.054688c0-18.832032-15.265626-34.101563-34.101563-34.101563-18.832031 0-34.097656 15.269531-34.097656 34.101563"/></g><path d="m155.929688 246.578125h-46.578126c0-12.863281 10.421876-23.304687 23.289063-23.304687s23.289063 10.441406 23.289063 23.304687zm0 0" fill="#2f373b"/><path d="m151.179688 242.460938c0 1.464843-.320313 2.867187-.90625 4.117187h-18.144532c-.589844-1.25-.90625-2.652344-.90625-4.117187 0-5.503907 4.464844-9.984376 9.984375-9.984376 5.507813 0 9.972657 4.480469 9.972657 9.984376zm0 0" fill="#fff"/><path d="m284.195312 232.054688c0-18.832032-15.265624-34.101563-34.101562-34.101563-18.832031 0-34.097656 15.269531-34.097656 34.101563" fill="#eb927a"/><path d="m273.382812 246.578125h-46.578124c0-12.863281 10.421874-23.304687 23.289062-23.304687s23.289062 10.441406 23.289062 23.304687zm0 0" fill="#2f373b"/><path d="m268.628906 242.460938c0 1.464843-.316406 2.867187-.902344 4.117187h-18.144531c-.589843-1.25-.90625-2.652344-.90625-4.117187 0-5.503907 4.464844-9.984376 9.984375-9.984376 5.507813 0 9.96875 4.480469 9.96875 9.984376zm0 0" fill="#fff"/><path d="m358.765625 169.105469v229c0 14.765625-6.488281 28.652343-17.824219 38.117187l-23.09375 19.257813v-260.730469h-256.074218v228.003906c-2.964844-3.445312-5.839844-6.980468-8.621094-10.582031-12.914063-16.742187-23.800782-35.121094-32.296875-54.796875v-188.269531c0-5.441407.25-10.855469.761719-16.207031 0-.007813 0-.007813 0-.007813 3.691406-39.121094 20.710937-75.390625 48.839843-103.4375 31.921875-31.855469 74.40625-49.4101562 119.652344-49.453125 10 .0117188 19.863281.878906 29.496094 2.570312.011719-.011718.011719-.011718.011719 0 33.925781 5.945313 65.097656 22.070313 89.839843 46.863282 31.796875 31.859375 49.308594 74.355468 49.308594 119.671875zm0 0" fill="#2f373b"/><path d="m231.359375 5.066406c-29.410156 7.316406-56.378906 22.464844-78.34375 44.386719-31.984375 31.890625-49.601563 74.398437-49.601563 119.644531v25.652344h-41.640624v228.003906c-2.964844-3.445312-5.839844-6.980468-8.621094-10.582031-12.914063-16.742187-23.800782-35.121094-32.296875-54.796875v-188.277344c0-5.445312.25-10.859375.761719-16.207031 3.691406-39.121094 20.710937-75.378906 48.839843-103.4375 31.921875-31.855469 74.40625-49.4101562 119.652344-49.453125 10 .0117188 19.863281.878906 29.496094 2.570312 3.960937.691407 7.878906 1.527344 11.753906 2.496094zm0 0" fill="#151a1c"/><path d="m183.742188 327.261719c0 21.050781-17.066407 38.125-38.128907 38.125-.035156 0-.074219 0-.109375 0-3.023437-.007813-4.054687-4.007813-1.476562-5.585938 10.945312-6.699219 18.253906-18.769531 18.253906-32.539062 0-13.773438-7.308594-25.84375-18.253906-32.542969-2.578125-1.578125-1.546875-5.578125 1.476562-5.585938h.109375c21.066407 0 38.128907 17.074219 38.128907 38.128907zm0 0" fill="#eb927a"/><path d="m212.601562 327.261719c0 21.050781 17.0625 38.125 38.125 38.125h.113282c3.019531-.007813 4.050781-4.007813 1.476562-5.585938-10.949218-6.699219-18.253906-18.769531-18.253906-32.539062 0-13.773438 7.308594-25.84375 18.253906-32.542969 2.574219-1.578125 1.542969-5.578125-1.476562-5.585938-.039063 0-.074219 0-.113282 0-21.0625 0-38.125 17.074219-38.125 38.128907zm0 0" fill="#eb927a"/><path d="m487.90625 316.570312v27.59375c0 5.796876-4.691406 10.488282-10.484375 10.488282h-296.644531c-5.78125 0-10.484375-4.691406-10.484375-10.488282v-27.59375c0-5.792968 4.703125-10.488281 10.484375-10.488281h296.644531c5.792969 0 10.484375 4.695313 10.484375 10.488281zm0 0" fill="#ff9c40"/><path d="m487.90625 316.570312v11.804688c0 5.792969-4.691406 10.484375-10.484375 10.484375h-296.644531c-5.78125 0-10.484375-4.691406-10.484375-10.484375v-11.804688c0-5.792968 4.703125-10.488281 10.484375-10.488281h296.644531c5.792969 0 10.484375 4.695313 10.484375 10.488281zm0 0" fill="#ffd073"/><path d="m296.261719 319.863281c0 6.542969-5.304688 11.84375-11.84375 11.84375-6.542969 0-11.84375-5.300781-11.84375-11.84375 0-6.539062 5.300781-11.84375 11.84375-11.84375 6.539062 0 11.84375 5.304688 11.84375 11.84375zm0 0" fill="#151a1c"/><path d="m341.910156 319.863281c0 6.542969-5.304687 11.84375-11.84375 11.84375-6.542968 0-11.84375-5.300781-11.84375-11.84375 0-6.539062 5.300782-11.84375 11.84375-11.84375 6.539063 0 11.84375 5.304688 11.84375 11.84375zm0 0" fill="#151a1c"/><path d="m387.558594 319.863281c0 6.542969-5.300782 11.84375-11.84375 11.84375-6.542969 0-11.84375-5.300781-11.84375-11.84375 0-6.539062 5.300781-11.84375 11.84375-11.84375 6.542968 0 11.84375 5.304688 11.84375 11.84375zm0 0" fill="#151a1c"/><path d="m433.207031 319.863281c0 6.542969-5.300781 11.84375-11.84375 11.84375s-11.84375-5.300781-11.84375-11.84375c0-6.539062 5.300781-11.84375 11.84375-11.84375s11.84375 5.304688 11.84375 11.84375zm0 0" fill="#151a1c"/><path d="m496.152344 58.222656 1.957031 10.878906c.429687 2.375-.855469 4.722657-3.082031 5.644532l-29.320313 12.132812 8.582031 47.628906c1.613282 8.953126-7.796874 18.140626-21.015624 20.523438s-25.242188-2.941406-26.859376-11.898438c-1.613281-8.957031 7.796876-18.144531 21.015626-20.527343 4.851562-.875 9.535156-.707031 13.609374.285156l-8.804687-48.855469c-.425781-2.371094.855469-4.722656 3.085937-5.644531l33.828126-13.996094c3.019531-1.25 6.421874.609375 7.003906 3.828125zm0 0" fill="#6783b8"/><path d="m446.996094 327.617188v98.847656c-17.40625 19.488281-37.75 36.300781-60.34375 49.726562-2.027344 1.210938-4.074219 2.382813-6.140625 3.519532-.648438.378906-1.296875.742187-1.957031 1.097656 0 0-.007813 0-.007813.011718-5.382813 2.9375-10.878906 5.695313-16.488281 8.246094-2.238282 1.023438-4.484375 2.003906-6.75 2.957032v-164.40625c0-6.332032 5.117187-11.460938 11.449218-11.460938 6.34375 0 11.464844 5.128906 11.464844 11.460938 0-.230469.007813-.449219.019532-.65625.011718-.230469.042968-.453126.0625-.671876.03125-.332031.085937-.65625.15625-.980468 1.066406-5.226563 5.695312-9.152344 11.222656-9.152344 1.441406 0 2.8125.257812 4.066406.730469h.007812c4.328126 1.660156 7.390626 5.828125 7.390626 10.730469 0-.449219.03125-.886719.082031-1.328126.03125-.332031.082031-.65625.15625-.980468 1.066406-5.226563 5.695312-9.152344 11.222656-9.152344 1.429687 0 2.8125.257812 4.066406.730469 4.324219 1.652343 7.394531 5.828125 7.394531 10.730469 0-6.332032 5.140626-11.460938 11.472657-11.460938s11.453125 5.128906 11.453125 11.460938zm0 0" fill="#f4c0a3"/><path d="m371.179688 317.03125c-4.148438 1.726562-7.0625 5.8125-7.0625 10.585938v160.484374c-.679688.335938-1.371094.648438-2.058594.964844-2.238282 1.023438-4.484375 2.003906-6.75 2.957032h-.011719v-164.40625c0-6.332032 5.128906-11.460938 11.460937-11.460938 1.570313 0 3.0625.3125 4.421876.875zm0 0" fill="#eb927a"/><path d="m393.757812 316.890625c-3.964843 1.800781-6.714843 5.792969-6.714843 10.429687v.949219c0 2.4375-1.976563 4.414063-4.40625 4.414063-1.21875 0-2.316407-.492188-3.113281-1.289063-.800782-.800781-1.296876-1.90625-1.296876-3.125v-.65625c0-.226562.007813-.441406.019532-.660156.015625-.222656.027344-.441406.058594-.65625.035156-.335937.089843-.667969.152343-.996094 1.070313-5.222656 5.691407-9.152343 11.230469-9.152343 1.4375.003906 2.800781.265624 4.070312.742187zm0 0" fill="#eb927a"/><path d="m416.679688 316.890625c-3.960938 1.800781-6.714844 5.792969-6.714844 10.429687v.949219c0 2.4375-1.972656 4.414063-4.402344 4.414063-1.21875 0-2.320312-.492188-3.117188-1.289063-.796874-.800781-1.296874-1.90625-1.296874-3.125v-.65625c0-.441406.03125-.882812.078124-1.316406.035157-.335937.089844-.667969.152344-.996094 1.074219-5.222656 5.695313-9.152343 11.234375-9.152343 1.433594.003906 2.800781.265624 4.066407.742187zm0 0" fill="#eb927a"/><path d="m439.605469 316.890625c-3.964844 1.800781-6.714844 5.792969-6.714844 10.429687v.949219c0 2.4375-1.976563 4.414063-4.402344 4.414063-1.21875 0-2.320312-.492188-3.117187-1.289063-.796875-.800781-1.296875-1.90625-1.296875-3.125v-.65625c0-.441406.027343-.882812.078125-1.316406.035156-.335937.089844-.667969.152344-.996094 1.070312-5.222656 5.695312-9.152343 11.230468-9.152343 1.4375.003906 2.800782.265624 4.070313.742187zm0 0" fill="#eb927a"/><path d="m337.367188 327.617188v171.175781c-5.164063 1.722656-10.386719 3.289062-15.683594 4.691406-11.640625 3.09375-23.617188 5.382813-35.863282 6.792969-2.683593.3125-5.378906.574218-8.097656.804687h-.007812c-6.324219.53125-12.707032.835938-19.15625.898438-.855469.019531-1.703125.019531-2.558594.019531-3.457031 0-6.894531-.074219-10.324219-.207031v-184.175781c0-6.332032 5.121094-11.472657 11.453125-11.472657 6.34375 0 11.460938 5.140625 11.460938 11.472657 0-.230469.011718-.449219.023437-.667969.007813-.21875.03125-.441407.0625-.660157.03125-.332031.082031-.65625.15625-.980468 1.066407-5.226563 5.683594-9.164063 11.222657-9.164063 1.441406 0 2.808593.261719 4.0625.742188h.011718c4.316406 1.660156 7.386719 5.828125 7.386719 10.730469 0-.449219.03125-.886719.085937-1.328126.03125-.332031.082032-.65625.15625-.980468 1.0625-5.226563 5.691407-9.164063 11.222657-9.164063 1.429687 0 2.808593.261719 4.0625.742188 4.328125 1.652343 7.398437 5.828125 7.398437 10.730469 0-6.332032 5.140625-11.472657 11.472656-11.472657 6.332032 0 11.453126 5.140625 11.453126 11.472657zm0 0" fill="#f4c0a3"/><path d="m261.546875 317.03125c-4.148437 1.714844-7.0625 5.8125-7.0625 10.585938v184.371093c-2.945313-.007812-5.882813-.082031-8.808594-.195312h-.011719v-184.175781c0-6.332032 5.132813-11.472657 11.464844-11.472657 1.566406 0 3.050782.324219 4.417969.886719zm0 0" fill="#eb927a"/><path d="m284.128906 316.890625c-3.964844 1.800781-6.714844 5.792969-6.714844 10.429687v.949219c0 2.4375-1.976562 4.414063-4.402343 4.414063-1.21875 0-2.320313-.492188-3.117188-1.289063-.796875-.800781-1.296875-1.90625-1.296875-3.125v-.65625c0-.226562.007813-.441406.023438-.660156.011718-.222656.027344-.441406.054687-.65625.035157-.335937.089844-.667969.152344-.996094 1.070313-5.222656 5.695313-9.152343 11.230469-9.152343 1.4375.003906 2.804687.265624 4.070312.742187zm0 0" fill="#eb927a"/><path d="m307.054688 316.890625c-3.964844 1.800781-6.714844 5.792969-6.714844 10.429687v.949219c0 2.4375-1.976563 4.414063-4.40625 4.414063-1.21875 0-2.316406-.492188-3.113282-1.289063-.800781-.800781-1.296874-1.90625-1.296874-3.125v-.65625c0-.441406.027343-.882812.078124-1.316406.035157-.335937.089844-.667969.152344-.996094 1.070313-5.222656 5.691406-9.152343 11.230469-9.152343 1.4375.003906 2.800781.265624 4.070313.742187zm0 0" fill="#eb927a"/><path d="m329.976562 316.890625c-3.960937 1.800781-6.714843 5.792969-6.714843 10.429687v.949219c0 2.4375-1.972657 4.414063-4.402344 4.414063-1.21875 0-2.316406-.492188-3.117187-1.289063-.796876-.800781-1.292969-1.90625-1.292969-3.125v-.65625c0-.441406.027343-.882812.074219-1.316406.035156-.335937.09375-.667969.15625-.996094 1.070312-5.222656 5.691406-9.152343 11.230468-9.152343 1.433594.003906 2.800782.265624 4.066406.742187zm0 0" fill="#eb927a"/><path d="m402.597656 189.921875-11.332031 42.910156c-3.042969-2.449219-6.933594-4.433593-11.375-5.605469-12.101563-3.195312-23.667969.859376-25.832031 9.058594-2.164063 8.199219 5.890625 17.4375 17.996094 20.632813 12.101562 3.195312 23.667968-.863281 25.832031-9.0625l11.511719-43.601563 45.375 2.003906-7.667969 29.039063c-3.046875-2.445313-6.9375-4.433594-11.375-5.605469-12.105469-3.195312-23.667969.863282-25.832031 9.0625-2.167969 8.199219 5.890624 17.433594 17.992187 20.628906 12.105469 3.195313 23.671875-.859374 25.835937-9.058593l14.382813-54.480469c1.160156-4.390625-2.03125-8.726562-6.566406-8.925781l-51.75-2.289063c-3.347657-.148437-6.34375 2.058594-7.195313 5.292969zm0 0" fill="#6783b8"/><path d="m366.355469 85.171875 10.832031 29.109375c-2.730469-.171875-5.753906.261719-8.765625 1.386719-8.210937 3.054687-13.1875 10.039062-11.121094 15.601562 2.070313 5.5625 10.402344 7.59375 18.613281 4.535157 8.210938-3.054688 13.1875-10.039063 11.121094-15.601563l-11.007812-29.578125 26.753906-17.160156 7.332031 19.703125c-2.730469-.171875-5.753906.261719-8.765625 1.382812-8.210937 3.054688-13.1875 10.042969-11.121094 15.601563 2.070313 5.5625 10.402344 7.59375 18.613282 4.539062 8.210937-3.054687 13.1875-10.039062 11.121094-15.601562l-13.753907-36.960938c-1.105469-2.976562-4.683593-4.167968-7.355469-2.453125l-30.519531 19.570313c-1.96875 1.261718-2.792969 3.730468-1.976562 5.925781zm0 0" fill="#6783b8"/></svg>