<svg height="512" viewBox="0 0 512 512" width="512" xmlns="http://www.w3.org/2000/svg" xmlns:xlink="http://www.w3.org/1999/xlink"><linearGradient id="a" gradientUnits="userSpaceOnUse" x1="56.487" x2="523.744" y1="543.513" y2="76.256"><stop offset="0" stop-color="#003f8a"/><stop offset=".518" stop-color="#00d7df"/><stop offset="1" stop-color="#006df0"/></linearGradient><linearGradient id="b" x1="-67.513" x2="399.744" xlink:href="#a" y1="419.513" y2="-47.744"/><linearGradient id="c" x1="-49.513" x2="417.744" xlink:href="#a" y1="437.513" y2="-29.744"/><linearGradient id="d" x1="-71.271" x2="395.986" xlink:href="#a" y1="415.755" y2="-51.502"/><g><path d="m496 256a8 8 0 0 0 8-8v-32a8 8 0 0 0 -8-8h-480a8 8 0 0 0 -8 8v32a8 8 0 0 0 8 8h24v176h-24a8 8 0 0 0 -8 8v32a8 8 0 0 0 8 8h480a8 8 0 0 0 8-8v-32a8 8 0 0 0 -8-8h-24v-176zm-472-32h464v16h-464zm328 152v-64h32v64zm-8-80a8 8 0 0 0 -8 8v80a8 8 0 0 0 8 8h16v40h-96v-40h16a8 8 0 0 0 8-8v-80a8 8 0 0 0 -8-8h-16v-40h96v40zm-184 16v64h-32v-64zm-8 80h16a8 8 0 0 0 8-8v-80a8 8 0 0 0 -8-8h-16v-40h96v40h-16a8 8 0 0 0 -8 8v80a8 8 0 0 0 8 8h16v40h-96zm88-16v-64h32v64zm-184-120h80v40h-16a8 8 0 0 0 -8 8v80a8 8 0 0 0 8 8h16v40h-80zm432 208h-464v-16h464zm-32-32h-80v-40h16a8 8 0 0 0 8-8v-80a8 8 0 0 0 -8-8h-16v-40h80z" fill="url(#a)"/><path d="m88 264h-16a8 8 0 0 0 0 16h16a8 8 0 0 0 0-16z" fill="url(#b)"/><path d="m120 280a8 8 0 0 0 0-16h-8a8 8 0 0 0 0 16z" fill="url(#c)"/><path d="m59.849 184.171a47.687 47.687 0 0 0 24.959 7.072 48.344 48.344 0 0 0 11.331-1.354 48 48 0 0 0 36.641-49.972l335.085-80.733a8 8 0 1 0 -3.748-15.555l-335.085 80.733a48 48 0 1 0 -69.183 59.809zm17.551-72.056a32.232 32.232 0 0 1 7.555-.9 32.034 32.034 0 0 1 31.05 24.516 32 32 0 1 1 -38.605-23.616z" fill="url(#d)"/></g></svg>