<svg id="Layer_1" enable-background="new 0 0 510 510" height="512" viewBox="0 0 510 510" width="512" xmlns="http://www.w3.org/2000/svg"><g><g><path d="m291.403 2.579-72.805-.002c-76.462 10.913-122.194 52.782-122.339 52.864-3.787 17.481-10.374 42.85-10.374 61.465 0 140.833 118.763 254.972 259.596 254.972 60.017 0 115.159-27.944 158.719-62.639.177-1.087 5.8-23.477 5.8-54.239 0-128.473-95.008-234.756-218.597-252.421z" fill="#6cdbae"/><path d="m345.459 364.679c-140.833 0-255-114.167-255-255 0-18.615 2.013-36.757 5.801-54.239-.006.005-.011.01-.017.014-58.646 46.721-96.243 118.738-96.243 199.546 0 58.604 19.769 112.59 53.002 155.655l46.415 46.398c43.052 33.2 97.012 52.947 155.583 52.947 121.17 0 224.116-84.98 249.199-200.761-43.559 34.695-98.724 55.44-158.74 55.44z" fill="#2ec79b"/></g><g><g><path d="m484.662 481.397-152.791-390.44c-8.37-21.148-25.518-39.095-48.705-47.515-19.767-7.178-40.513-6.177-58.682 1.199l-1.884 267.025 1.883-2.222 2.09-2.467c14.876-17.558 41.957-17.558 56.833 0l165.739 195.612c5.635 6.629 15.078 9.319 23.634 5.97 10.782-4.219 16.102-16.38 11.883-27.162z" fill="#1e87dc"/></g><path d="m280.652 292.216c.383.378.759.765 1.129 1.162 9.327 11.073 26.78-.305 20.412-13.307l-4.586-9.363c-9.736-19.879-29.965-28.514-48.829-25.939l3.964-10.131c6.549-16.735 22.683-27.747 40.654-27.747 4.594 0 8.318-3.724 8.318-8.318v-31.473c0-4.594-3.724-8.318-8.318-8.318h-10.969l6.055-15.472c.792-2.023 2.742-3.354 4.914-3.354 4.594 0 8.318-3.724 8.318-8.318v-22.142l4.742-12.119c8.58-21.924-2.576-46.896-24.862-54.487-.701-.239-1.408-.469-2.12-.691-41.527-12.915-85.912 9.266-101.76 49.765l-124.712 318.691c13.416 17.384 29.026 32.989 46.415 46.398l123.183-145.387 2.78-7.104c8.828-22.558 38.035-29.365 55.272-12.346z" fill="#195fa0"/><path d="m255 0c-5.705 0-11.275.197-16.72.549v88.097h53.123v-86.067c-11.89-1.7-24.044-2.579-36.403-2.579z" fill="#82878c"/><path d="m218.597 2.577v86.069h20.413v-88.153c-7.025.434-13.833 1.144-20.413 2.084z" fill="#696e73"/><g><path d="m301.716 118.866v-27.703c0-4.594-3.724-8.318-8.318-8.318h-62.72v36.022h71.038z" fill="#ffc305"/></g><g><path d="m239.946 116.87c-4.594 0-8.318-3.724-8.318-8.318v-25.708h-15.025c-4.594 0-8.318 3.724-8.318 8.318v31.474c0 4.594 3.724 8.318 8.318 8.318h76.795c4.594 0 8.318-3.724 8.318-8.318v-5.767h-61.77z" fill="#f7884f"/></g><g><path d="m301.716 185.314v-27.215c0-4.594-3.724-8.318-8.318-8.318h-62.72v35.534h71.038z" fill="#ffc305"/></g><g><path d="m239.946 183.708c-4.594 0-8.318-3.724-8.318-8.318v-25.609h-15.025c-4.594 0-8.318 3.724-8.318 8.318v31.474c0 4.594 3.724 8.318 8.318 8.318h76.795c4.594 0 8.318-3.724 8.318-8.318v-5.865z" fill="#f7884f"/></g><path d="m301.734 270.132-4.126-8.425c-17.283-35.29-67.634-35.145-84.713.244l-4.293 8.896c-.306.754.174 1.854 1.078 3.035 3.454 4.515 9.732 5.779 14.831 3.266l30.36-14.961 27.702 14.603c5.915 3.118 13.318 1.915 17.647-3.181 1.128-1.329 1.776-2.584 1.514-3.477z" fill="#ffc305"/><g><path d="m301.734 270.132c-4.269 5.805-13.528 7.879-19.479.814-15.246-16.361-41.24-16.136-56.2.487-5.205 6.543-13.661 4.69-17.453-.586l-1.241 2.573c-5.612 11.629 10.183 21.55 18.221 11.445 14.961-16.623 40.954-16.848 56.2-.487 9.327 11.073 26.78-.304 20.412-13.307z" fill="#f7884f"/></g><g><circle cx="328.06" cy="255.757" fill="#195fa0" r="13.431"/></g><g><circle cx="360.406" cy="309.651" fill="#195fa0" r="16.726"/></g><g><circle cx="390.563" cy="366.087" fill="#195fa0" r="13.431"/></g><g><circle cx="422.909" cy="419.982" fill="#195fa0" r="16.726"/></g><g><circle cx="325.06" cy="248.756" fill="#ffc305" r="13.431"/></g><g><circle cx="357.406" cy="302.651" fill="#ffc305" r="16.726"/></g><g><circle cx="387.563" cy="359.086" fill="#ffc305" r="13.431"/></g><g><circle cx="419.909" cy="412.981" fill="#ffc305" r="16.726"/></g><g><path d="m218.598 30.297h73.49v10h-73.49z" fill="#d2d2d7"/></g><g><path d="m218.598 30.297h20.413v10h-20.413z" fill="#b9b9be"/></g></g></g></svg>