<svg id="Filled" height="512" viewBox="0 0 512 512" width="512" xmlns="http://www.w3.org/2000/svg"><path d="m264 424h144v32h-144z" fill="#f7b030"/><path d="m264 136a160 160 0 1 0 160 160 159.994 159.994 0 0 0 -160-160zm0 288a128 128 0 1 1 128-128 128 128 0 0 1 -128 128z" fill="#f7b030"/><path d="m136 280v32a32 32 0 0 0 32 32h192a32 32 0 0 0 32-32v-32a32 32 0 0 0 -32-32h-192a32 32 0 0 0 -32 32zm208 32h-160a16 16 0 0 1 -16-16 16 16 0 0 1 16-16h160a16 16 0 0 1 16 16 16 16 0 0 1 -16 16z" fill="#ffe76c"/><path d="m216 40a16 16 0 0 0 -16-16h-160a16 16 0 0 0 -16 16 16 16 0 0 0 16 16h160a16 16 0 0 0 16-16z" fill="#f7b030"/><path d="m456 472-24-16h-24v-32h24l24-16z" fill="#ffd33a"/><path d="m456 392h32v96h-32z" fill="#f7b030"/><path d="m136 296 8-144 40-96h-128l40 96 8 144a159.994 159.994 0 0 0 160 160v-32a128 128 0 0 1 -128-128z" fill="#ffd33a"/><path d="m232 424a16 16 0 0 1 -16-16v-32h32v32a16 16 0 0 1 -16 16z" fill="#f7b030"/><path d="m264 424a16 16 0 0 1 -16-16v-32h32v32a16 16 0 0 1 -16 16z" fill="#eba72e"/><g fill="#f7b030"><path d="m296 424a16 16 0 0 1 -16-16v-32h32v32a16 16 0 0 1 -16 16z"/><circle cx="264" cy="328" r="16"/><circle cx="296" cy="328" r="16"/><circle cx="232" cy="328" r="16"/></g><path d="m488 384h-32a8 8 0 0 0 -8 8v11.719l-18.422 12.281h-48.132a167.491 167.491 0 0 0 50.554-120c0-92.636-75.364-168-168-168a167.685 167.685 0 0 0 -113.086 43.765l1-17.952 37.42-89.813h10.666a24 24 0 0 0 0-48h-160a24 24 0 0 0 0 48h10.666l37.422 89.812 7.912 142.414c.12 92.534 75.438 167.774 168 167.774h165.578l18.422 12.281v11.719a8 8 0 0 0 8 8h32a8 8 0 0 0 8-8v-96a8 8 0 0 0 -8-8zm-176-16h-8v-16h56a40.044 40.044 0 0 0 10.715-1.458 120.926 120.926 0 0 1 -50.715 51.598v-26.14a8 8 0 0 0 -8-8zm-96 0a8 8 0 0 0 -8 8v26.14a120.931 120.931 0 0 1 -50.716-51.6 40.017 40.017 0 0 0 10.716 1.46h56v16zm-48-112h192a24 24 0 0 1 20.632 11.747 119.849 119.849 0 0 1 3.368 28.253 118.337 118.337 0 0 1 -3.5 28.486 24.006 24.006 0 0 1 -20.5 11.514h-41.376a23.944 23.944 0 0 0 0-16h25.376a24 24 0 0 0 0-48h-160a24 24 0 0 0 0 48h25.376a23.944 23.944 0 0 0 0 16h-41.376a24 24 0 0 1 -20.5-11.519 118.309 118.309 0 0 1 -3.5-28.263l.778-14a120.778 120.778 0 0 1 2.526-14.354 23.982 23.982 0 0 1 20.696-11.864zm24-40a8 8 0 0 1 16 0v24h-16zm80 24h-16v-8a8 8 0 0 1 16 0zm64-24v24h-16v-24a8 8 0 0 1 16 0zm-112 112a8 8 0 1 1 8 8 8.009 8.009 0 0 1 -8-8zm-32-40h16v16h-16zm144 16h-16v-16h16zm-32 24a8 8 0 1 1 -8-8 8.009 8.009 0 0 1 8 8zm-40-8a8 8 0 1 1 -8 8 8.009 8.009 0 0 1 8-8zm40-16h-16v-16h16zm-32 0h-16v-16h16zm-32 0h-16v-16h16zm0 64v-16h16v16zm40 0h-8v-16h16v16zm-56 16h16v24a8 8 0 0 1 -16 0zm32 24v-24h16v24a8 8 0 0 1 -7.751 7.987h-.5a8 8 0 0 1 -7.749-7.987zm32 0v-24h16v24a8 8 0 0 1 -16 0zm72-168h-8v-24c0-.521-.023-1.037-.056-1.55a120.557 120.557 0 0 1 18.956 27.065 40.046 40.046 0 0 0 -10.9-1.515zm-56-24v24h-16v-8a24 24 0 0 0 -48 0v8h-16v-24a24.035 24.035 0 0 0 -20.445-23.735 120.109 120.109 0 0 1 120.744.021 24.038 24.038 0 0 0 -20.299 23.714zm-128 0v24h-8a40.009 40.009 0 0 0 -11.023 1.553 119.609 119.609 0 0 1 19.1-27.321c-.048.585-.077 1.173-.077 1.768zm-144-176a8.009 8.009 0 0 1 8-8h160a8 8 0 0 1 0 16h-160a8.009 8.009 0 0 1 -8-8zm80 256q0-.222-.012-.444l-8-144a8.039 8.039 0 0 0 -.6-2.633l-35.388-84.923h104l-35.385 84.923a8.034 8.034 0 0 0 -.6 2.633l-7.188 129.39a138.027 138.027 0 0 0 -.827 15.054 135.966 135.966 0 0 0 84.412 125.842 23.975 23.975 0 0 0 28.916 8.271 137.144 137.144 0 0 0 45.344 0 23.975 23.975 0 0 0 28.916-8.271 135.966 135.966 0 0 0 84.412-125.842c0-74.991-61.01-136-136-136a135.914 135.914 0 0 0 -116.037 64.892l1.607-28.929a151.785 151.785 0 0 1 114.43-51.963c83.813 0 152 68.187 152 152s-68.187 152-152 152-152-68.187-152-152zm250.509 136h37.491v16h-64.495a168.177 168.177 0 0 0 27.004-16zm73.928 17.344a7.992 7.992 0 0 0 -4.437-1.344h-16v-16h16a7.992 7.992 0 0 0 4.437-1.344l11.563-7.708v34.1zm43.563 30.656h-16v-80h16z"/></svg>