<svg id="Layer_1" enable-background="new 0 0 510 510" height="512" viewBox="0 0 510 510" width="512" xmlns="http://www.w3.org/2000/svg"><g><g><path d="m282.418 1.457-55.761.099c-81.296 8.982-130.248 53.801-130.398 53.885-3.787 17.481-10.374 42.85-10.374 61.465 0 140.833 118.763 254.972 259.596 254.972 60.017 0 115.159-27.944 158.719-62.639.178-1.087 5.8-23.477 5.8-54.239 0-131.57-99.643-239.866-227.582-253.543z" fill="#da4a54"/><path d="m345.459 364.679c-140.833 0-255-114.167-255-255 0-18.615 2.013-36.757 5.8-54.239-.006.005-.011.01-.017.014-58.645 46.721-96.242 118.738-96.242 199.546 0 95.397 52.384 178.558 129.957 222.289l250.129-.058c62.147-35.039 108.403-95.474 124.113-167.992-43.559 34.695-98.724 55.44-158.74 55.44z" fill="#d80a61"/></g><g><g><g><path d="m107.388 363.261h295.224v46.24h-295.224z" fill="#5a2d19"/></g></g><g><g><path d="m127.308 150.888h255.562v47.827h-255.562z" fill="#5a2d19"/></g></g><path d="m380.086 477.23c14.272-19.624 22.526-42.843 22.526-67.728 0-27.947-10.41-53.793-28.063-74.804-21.267-25.314-24.276-61.551-6.82-89.628 9.661-15.539 15.141-33.306 15.141-52.179 0-60.999-57.249-110.448-127.87-110.448s-127.87 49.449-127.87 110.448c0 18.873 5.48 36.64 15.141 52.179 17.456 28.078 14.447 64.315-6.82 89.628-17.653 21.011-28.062 46.858-28.062 74.804 0 24.91 8.271 48.151 22.569 67.787 36.946 20.828 79.606 32.711 125.042 32.711 45.277 0 88.009-11.866 125.086-32.77z" fill="#69280f"/><path d="m226.623 508.439c9.317 1.031 18.785 1.561 28.377 1.561 9.477 0 18.843-.52 28.068-1.534v-23.345h-56.446v23.318z" fill="#ffa50a"/><path d="m393.417 323.104c-4.745-11.033-11.208-21.345-19.107-30.694-21.291-25.196-23.784-61.515-6.438-89.573 9.573-15.484 14.999-33.17 14.999-51.95-.001-60.998-57.25-110.447-127.871-110.447s-127.87 49.449-127.87 110.448c0 18.78 5.427 36.466 14.999 51.95 17.346 28.058 14.853 64.376-6.438 89.571-7.9 9.349-14.363 19.661-19.108 30.695-.445 47.827 38.203 86.836 86.032 86.836h104.771c47.828 0 86.476-39.009 86.031-86.836z" fill="#965028"/><g><g><g><path d="m255 406.209c-63.448 0-117.546-34.577-138.417-83.105-5.946 13.825-9.195 28.782-9.195 44.395 0 70.416 66.088 127.5 147.612 127.5s147.612-57.084 147.612-127.5c0-15.613-3.249-30.57-9.195-44.395-20.871 48.528-74.969 83.105-138.417 83.105z" fill="#823214"/></g></g></g><g><g><path d="m284.56 449.358 2.999-90.719c.215-6.503-4.998-11.891-11.505-11.891h-42.108c-6.506 0-11.72 5.388-11.505 11.891l2.999 90.719z" fill="#fac855"/></g></g><g><g><path d="m255 448.088c-10.1 0-20.01-.701-29.669-2.049l1.542 46.648c9.105 1.517 18.509 2.312 28.127 2.312s19.022-.795 28.127-2.312l1.542-46.648c-9.659 1.348-19.569 2.049-29.669 2.049z" fill="#ffc305"/></g></g><g><g><path d="m222.048 290.021h65.903v18.653h-65.903z" fill="#783c28"/></g></g><g><g><path d="m222.048 275.02h65.903v18.653h-65.903z" fill="#fac855"/></g></g><g><g><path d="m222.955 169.684-.595 23.647c-.171 6.801 5.296 12.407 12.099 12.407h41.018c6.827 0 12.303-5.644 12.097-12.468l-.712-23.586z" fill="#823214"/></g></g><path d="m286.692 143.021-4.274-141.564c-9.007-.963-18.155-1.457-27.418-1.457-9.834 0-19.289.556-28.343 1.557l-3.559 141.465h63.594z" fill="#fac855"/><path d="m252.139 77.478 1.949-77.477c-9.507.033-18.657.585-27.431 1.555l-3.559 141.465h63.594l-.938-31.071c-18.902 0-34.091-15.575-33.615-34.472z" fill="#ffc305"/><g><g><path d="m287.575 172.269-1.195-39.565c-1.9 4.182-6.113 7.104-11.026 7.104h-41.018c-4.873 0-9.061-2.877-10.981-7.009l-.995 39.53c-.171 6.801 5.296 12.407 12.099 12.407h41.018c6.828.001 12.304-5.643 12.098-12.467z" fill="#ffa50a"/></g></g><g fill="#fff"><path d="m210.949 223.17h-14.585c-11.717 0-20.424 10.812-17.958 22.244l11.962 55.473c.408 1.892-.055 3.84-1.271 5.346-2.639 3.268-6.338 2.147-8.111 2.369-.598-6.17-6.077-10.912-12.529-10.313-5.628.522-10.126 5.252-10.376 10.899-.362 8.152 7.569 13.995 15.168 11.415h10.891c11.717 0 20.423-10.813 17.958-22.244l-11.962-55.473c-.408-1.892.055-3.84 1.271-5.345.132-.163.266-.316.403-.458 2.604-2.708 7.086-1.515 8.52 1.957 1.695 4.102 5.697 7.009 10.389 7.101 6.17.121 11.473-4.868 11.708-11.036.248-6.549-4.986-11.935-11.478-11.935z"/><path d="m348.434 308.667c-.234-6.167-5.537-11.157-11.708-11.036-4.691.092-8.692 2.997-10.387 7.097-1.436 3.472-5.917 4.667-8.522 1.96-.137-.142-.271-.294-.403-.457-1.216-1.505-1.679-3.454-1.271-5.345l11.963-55.473c1.301-6.035-.473-12.272-4.859-16.756-3.528-3.606-8.461-5.488-13.505-5.488h-14.179c-6.492 0-11.726 5.386-11.477 11.934.235 6.167 5.538 11.157 11.708 11.035 4.691-.093 8.691-2.997 10.387-7.097 1.436-3.472 5.917-4.667 8.522-1.96.137.142.271.294.403.457 1.216 1.505 1.679 3.454 1.271 5.345l-11.963 55.473c-2.47 11.455 6.266 22.244 17.958 22.244h14.585c6.492.001 11.726-5.385 11.477-11.933z"/></g></g><g><g><path d="m-14.921 243.608h590.824v8h-590.824z" fill="#fff" transform="matrix(.663 -.749 .749 .663 -90.836 293.444)"/></g><g><path d="m63.533 489.145-19.356-19.356 47.063-47.062 19.356 19.356c3.305 3.305 3.305 8.664 0 11.969l-35.093 35.093c-3.306 3.305-8.664 3.305-11.97 0z" fill="#ffa50a"/></g><g><path d="m489.339 23.334-450.133 464.233c-6.529 6.734-17.281 6.9-24.015.37-6.734-6.529-6.9-17.281-.37-24.015.104-.107.264-.266.37-.37l464.233-450.133c2.78-2.696 7.219-2.627 9.915.153 2.643 2.725 2.621 7.053 0 9.762z" fill="#ffc305"/></g></g></g></svg>